<svg xmlns="http://www.w3.org/2000/svg" viewBox="0 0 655 655"><path d="M643.885 327.341c-.001 173.653-142.896 316.546-316.548 316.546S10.792 500.993 10.791 327.341 153.682 10.793 327.335 10.791s316.548 142.895 316.548 316.548z" fill="#fff" stroke="#000" stroke-width="5"/><g fill="#003089"><path d="M242.154 392.745c36.637-32.299 40.158-88.266 7.858-124.903l-30.986-35.147c-32.3-36.637-88.267-40.158-124.903-7.858l-11.308 9.969c-36.637 32.299-40.158 88.266-7.858 124.903l30.986 35.147c32.3 36.637 88.267 40.158 124.903 7.859z"/><path d="M84.396 248.646c-22.799.206-45.64 8.336-64.162 24.665l-5.162 4.55a316.516 316.516 0 0 0-4.281 49.48 316.63 316.63 0 0 0 78.782 208.376 98.526 98.526 0 0 0 32.596-19.14l63.316-55.818c40.876-36.037 44.773-97.957 8.738-138.835l-35.156-39.875c-19.708-22.355-47.156-33.65-74.671-33.403z"/></g><path d="M207.961 415.319a10.53 10.53 0 0 0-.906 0c-11.2.478-30.771 17.907-50.311 44.96-19.494 26.987-38.895 63.794-51.449 92.293a316.75 316.75 0 0 0 17.926 16.698c16.857-17.374 38.806-42.118 61.59-71.11 16.31-20.75 19.646-27.617 26.573-39.486 8.642-30.034 5.752-42.962-3.423-43.355z" fill="#89ba17"/><path d="M324.773 188.538l51.689 141.833c1.841 5.053-.527 7.141-5.309 4.679l-134.234-69.061c-4.784-2.459-10.116-8.508-11.957-13.559l-51.687-141.835c-1.841-5.054.525-7.139 5.307-4.679l134.234 69.06c4.784 2.46 10.116 8.508 11.957 13.562z" fill="#003089"/><g fill="#89ba17"><path d="M219.938 165.067c52.755 19.599 86.256 59.37 102.941 116.767l-49.366 43.296c-14.678-58.707-50.853-95.314-102.383-116.134z"/><path d="M153.574 356.482c6.303-10.432 7.226-21.553 1.29-28.288-5.953-6.753-17.15-7.216-28.324-2.222l-3.661 30.338z" /><path d="M56.474 248.065c-11.081-.172-25.718 3.442-37.046 7.265a316.573 316.573 0 0 0-7.891 57.093c36.331-27.323 65.48-53.288 58.326-60.535-2.857-2.626-7.643-3.733-13.389-3.823z"/></g><path d="M281.604 299.093c24.047 27.275 21.425 68.942-5.85 92.988s-68.941 21.425-92.987-5.851-21.425-68.941 5.85-92.987 68.941-21.425 92.987 5.85z" fill="#fff"/><path d="M174.5 379.557c-7.534-12.679-10.837-26.157-9.927-40.527.859-13.576 5.345-25.693 13.691-36.969 4.667-6.302 13.648-14.201 20.626-18.139 11.73-6.62 25.097-9.188 38.288-8.837 7.444.198 26.254 2.881 48.955 22.59 0 0 15.554 2.186 21.007 6.4 11.352 6.383 16.05 9.847 16.897 11.277s-2.157.826-6.21-.939l-22.966-8.105 5.725 10.911c15.082 6.691 24.243 5.544 58.001 23.213 6.917 3.782 1.173 3.586-10.564-.088-9.773-3.058-24.651-9.27-30.986-10.734-5.936-1.373-15.124-2.408-15.124-2.408-1.409 5.046-.243 3.559 1.451 5.226 15.674 13.645 35.766 21.882 59.865 24.54 5.476.602 7.708 1.468 9.744 3.777 3.126 3.545.544 5.147-7.264 4.508-16.058-1.315-34.39-6.137-48.45-12.746-5.609-2.636-14.055-7.391-14.968-8.426-.272-.309-.547-.518-.612-.46s-.271 2.123-.461 4.589c-1.613 20.953-12.998 40.68-30.012 51.996-13.273 8.827-27.396 12.694-42.826 11.723-12.365-.778-24.067-4.899-34.872-12.277-5.852-3.995-15.508-14.205-19.008-20.095zm24.462 6.385c13.197 11.22 33.488 15.246 50.271 9.97 27.961-8.791 43.931-37.841 36.293-66.013-6.281-23.159-25.891-38.966-49.989-40.299-10.385-.573-20.371 1.734-29.484 6.816-4.91 2.735-13.248 10.049-16.424 14.405-10.188 13.97-13.344 30.612-8.907 46.948 3.141 11.558 8.579 19.954 18.24 28.173z" fill="#003089"/><path d="M251.144 329.009c7.392 8.384 6.618 21.164-1.727 28.521s-21.121 6.523-28.512-1.862-6.618-21.164 1.726-28.521 21.121-6.523 28.513 1.862z"/><path d="M239.325 317.117c2.814 3.192 2.596 7.988-.485 10.705s-7.867 2.331-10.681-.86-2.596-7.988.485-10.705 7.868-2.331 10.681.86zm-43.415-115.22c-24.045-27.276-65.712-29.898-92.987-5.852s-29.898 65.712-5.852 92.987 65.712 29.898 92.987 5.852 29.898-65.712 5.852-92.987z" fill="#fff"/><path d="M102.656 298.068c11.634 9.066 24.592 14.03 38.963 14.931 13.577.851 26.161-2.083 38.391-8.95 6.84-3.84 15.803-11.761 20.582-18.19 8.038-10.809 12.263-23.747 13.568-36.877.738-7.412.432-26.407-16.276-51.4 0 0-.219-15.707-3.717-21.645-4.906-12.063-7.757-17.157-9.069-18.177s-1.089 2.037.153 6.278l5.162 23.8-10.107-7.047c-4.747-15.803-2.462-24.747-15.76-60.453-2.885-7.334-3.412-1.613-1.237 10.494 1.809 10.077 6.108 25.618 6.767 32.083.616 6.064.493 15.307.493 15.307-5.183.766-3.563-.204-5.003-2.094-11.573-17.258-17.226-38.225-16.842-62.465.088-5.513-.491-7.835-2.525-10.143-3.125-3.547-5.039-1.185-5.385 6.639-.708 16.098 1.779 34.892 6.573 49.667 1.914 5.896 5.57 14.869 6.484 15.905.273.31.443.61.379.665s-2.141.004-4.614-.117c-20.987-1.027-41.986 7.796-55.343 23.259-10.424 12.06-16.03 25.588-17 41.018-.778 12.367 1.842 24.492 7.807 36.136 3.232 6.305 12.15 17.165 17.556 21.376zm-3.267-25.069c-9.48-14.499-10.928-35.134-3.593-51.124 12.226-26.638 43.051-38.841 70.043-27.731 22.188 9.133 35.414 30.572 33.713 54.646-.731 10.375-4.273 19.993-10.455 28.397-3.329 4.528-11.629 11.884-16.349 14.489-15.139 8.355-32.045 9.403-47.696 2.95-11.073-4.564-18.722-11.012-25.663-21.627z" fill="#003089"/><path d="M162.411 228.366c-7.392-8.385-20.168-9.219-28.513-1.862s-9.118 20.136-1.727 28.521 20.168 9.218 28.513 1.862 9.119-20.137 1.727-28.521z"/><path d="M151.897 217.951c-2.813-3.192-7.599-3.577-10.681-.861s-3.299 7.514-.485 10.705 7.6 3.577 10.681.861 3.299-7.514.485-10.705z" fill="#fff"/><g fill="#89ba17"><path d="M425.221 323.241c44.502 1.339 73.991-21.522 90.425-64.427l26.344 39.19-89.091 64.008z"/><path d="M423.892 355.686l-29.613-26.296c-3.186-3.556-5.761-7.083 1.877-10.085l46.506 6.076zm162.313-43.335c-20.854-29.213-61.503-35.999-90.716-15.145l-28.026 20.007c-29.213 20.855-35.999 61.503-15.145 90.716l6.437 9.017c20.855 29.213 61.503 36 90.716 15.145l28.026-20.007c29.214-20.854 36-61.503 15.145-90.716z"/><path d="M572.655 328.541c-14.476.037-29.097 4.43-41.83 13.52l-31.795 22.698c-32.596 23.269-40.104 68.242-16.836 100.836l36.042 50.487c10.045 14.071 24.137 23.461 39.531 27.724a316.6 316.6 0 0 0 82.683-172.597l-8.79-12.313a72.15 72.15 0 0 0-59.003-30.353z"/></g><path d="M606.12 332.669c-21.94.285-7.774 22.105 22.935 43.644a248.344 248.344 0 0 0 9.653 6.412 316.507 316.507 0 0 0 4.272-37.273c-6.076-4.048-10.138-6.153-15.662-9.273-9.149-2.496-16.136-3.576-21.198-3.51zM485.413 583.426c-8.332 6.141-24.327-25.117-30.557-40.976-9.996-25.456-13.033-63.765-8.827-81.568 3.987-12.104 16.921-36.921 31.055-38.978 24.527-2.691 13.513 155.94 8.329 161.522z" fill="#003089"/><path d="M443.205 331.795c-21.749 15.526-26.801 45.788-11.275 67.537s45.788 26.801 67.537 11.275 26.801-45.788 11.275-67.537-45.788-26.801-67.537-11.275z" fill="#fff"/><path d="M460.035 358.275c-6.685 4.773-8.257 14.05-3.507 20.704s14.035 8.181 20.72 3.409 8.257-14.05 3.507-20.704-14.034-8.181-20.72-3.409z"/><path d="M451.631 365.179c-2.544 1.816-3.186 5.286-1.432 7.743s5.244 2.977 7.789 1.161 3.186-5.287 1.432-7.744-5.244-2.977-7.789-1.16z" fill="#fff"/><path d="M545.418 269.222l-15.249-36.55c-2.33-4.17-4.827-7.75-10.152-1.501l-9.357 45.958z" fill="#89ba17"/><path d="M522.355 275.822c-21.749 15.526-26.801 45.789-11.275 67.537s45.788 26.801 67.537 11.276 26.801-45.789 11.275-67.537-45.788-26.801-67.537-11.276z" fill="#fff"/><path d="M539.185 302.303c-6.685 4.772-8.257 14.049-3.507 20.703s14.035 8.182 20.72 3.409 8.257-14.05 3.507-20.704-14.034-8.181-20.72-3.408z"/><path d="M530.781 309.206c-2.544 1.817-3.186 5.286-1.432 7.743s5.244 2.977 7.789 1.161 3.186-5.287 1.432-7.744-5.244-2.977-7.789-1.16z" fill="#fff"/><g fill="#89ba17"><path d="M571.64 361.024c-5.631 2.844-15.704 5.605-22.301 5.461-7.135-.156-15.235-2.699-21.037-5.685-1.291-.667-3.832-4.164-5.813-5.537l-3.599-2.495 2.583 3.939c.486 1.487 1.193 4.691 1.571 7.12 2.131 13.655.5 24.041-8.369 35.705-2.49 3.275-6.224 6.46-13.515 11.639-7.149 5.08-8.063 5.761-11.788 7.012-14.264 4.784-27.966 3.78-40.53-2.968-19.947-10.714-30.271-33.219-25.938-56.334.454-2.416 1.323-5.696 1.935-7.287 2.026-5.284 9.37-18.353 13.409-21.236 3.597-2.568 21.212-10.177 27.54-11.17 12.577-1.981 24.791 2.776 35.472 10.377 2.103 1.497 2.582 1.677 2.373.905-2.321-8.638-4.999-11.731-4.605-18.508.578-9.958 2.078-16.877 7.177-24.349 3.811-5.594 13.357-15.418 15.231-16.755 3.869-2.762 14.889-5.039 21.676-6.102 13.963-2.184 27.836 1.488 39.553 10.468 3.264 2.502 3.841 3.156 8.57 9.748 4.419 6.157 5.247 7.547 6.45 10.807 6.364 17.245 3.593 35.384-7.621 49.867-2.328 3.007-2.308 5.237-7.568 9.143-3.322 2.466-9.454 5.527-10.856 6.235zm9.902-20.923c2.421-2.961 5.696-8.794 7.164-12.765 3.73-10.081 2.627-22.947-2.784-32.469-6.01-10.583-15.373-17.412-26.935-19.648-11.696-2.264-21.879-.125-31.213 6.552-4.872 3.486-7.672 6.385-10.66 11.047-7.096 11.074-8.384 24.601-3.49 36.689 2.068 5.107 6.684 11.562 10.888 15.227 8.583 7.477 20.448 10.897 31.924 9.196 5.142-.763 6.902-1.272 11.204-3.252 3.913-1.8 11.352-7.461 13.902-10.577zm-80.631 57.542c8.574-9.201 12.453-22.374 10.232-34.753-1.078-6.011-2.898-10.163-6.924-15.803-2.575-3.607-4.214-5.486-6.395-7.327-11.712-9.893-28.295-12.236-42.518-6.008-1.677.735-4.803 2.587-6.943 4.12-12.725 9.095-18.885 24.395-16.092 39.963 1.941 10.82 8.719 20.727 18.272 26.712 10.724 6.719 26.08 7.626 37.656 2.223 4.224-1.971 9.725-5.924 12.712-9.127z"/><path d="M500.173 412.252c.334-.283.883-.673 1.216-.869s.062.035-.608.513-.945.638-.608.356zm-4.63 3.036l-1.746.985c-.207.106 2.515-1.874 6.049-4.399l5.904-4.032c-.716.772-8.524 6.466-10.208 7.444z"/></g><path d="M528.802 387.817c3.255 4.395 9.676 6.016 19.968 5.259 3.694-8.254 5.333-15.896 1.632-20.66-4.329-6.737-13.349-5.542-18.104-1.978-4.389 3.288-7.813 11.434-3.496 17.379z" fill="#003089" /></svg>