<svg clip-rule="evenodd" fill-rule="evenodd" stroke-linejoin="round" stroke-miterlimit="2" viewBox="0 0 1924 163" xmlns="http://www.w3.org/2000/svg"><g fill-rule="nonzero"><path d="m18.313-38.271c5.666 0 10.635 1.412 14.916 4.229l-3.604 7.5c-1.99-1.151-4.12-2.093-6.396-2.833-2.265-.734-4.177-1.104-5.729-1.104-2.766 0-4.146.917-4.146 2.75 0 1.198.677 2.156 2.042 2.875 1.375.724 3.042 1.349 5 1.875 1.969.515 3.937 1.14 5.896 1.875 1.958.739 3.614 1.937 4.979 3.604 1.375 1.656 2.062 3.74 2.062 6.25 0 3.641-1.427 6.479-4.27 8.521-2.834 2.042-6.454 3.062-10.855 3.062-3.14 0-6.239-.541-9.291-1.625-3.058-1.083-5.724-2.562-8-4.437l3.729-7.396c1.917 1.656 4.167 3.016 6.75 4.083 2.594 1.058 4.901 1.584 6.917 1.584 1.552 0 2.76-.276 3.625-.834.859-.552 1.291-1.375 1.291-2.458 0-1.042-.495-1.917-1.479-2.625-.99-.708-2.224-1.229-3.708-1.562-1.474-.344-3.078-.803-4.813-1.375-1.724-.584-3.328-1.214-4.812-1.896-1.474-.677-2.703-1.771-3.688-3.271-.989-1.5-1.479-3.292-1.479-5.375 0-3.458 1.375-6.219 4.125-8.292 2.76-2.083 6.406-3.125 10.938-3.125z" fill="#95bc4d" transform="matrix(4.13348 0 0 4.13348 152.59 159.692)"/><path d="m32.688-30.104h-11.396v30.104h-9.625v-30.104h-11.292v-7.771h32.313z" fill="#95bc4d" transform="matrix(4.13348 0 0 4.13348 283.691 159.692)"/><path d="m37.833-37.833v21.937c0 5.016-1.552 8.995-4.645 11.938-3.099 2.932-7.303 4.396-12.605 4.396-5.333 0-9.578-1.464-12.729-4.396-3.156-2.943-4.729-6.922-4.729-11.938v-21.937h9.625v21.937c0 2.531.729 4.542 2.188 6.042 1.458 1.489 3.359 2.229 5.708 2.229 2.302 0 4.151-.734 5.542-2.208 1.385-1.469 2.083-3.49 2.083-6.063v-21.937z" fill="#95bc4d" transform="matrix(4.13348 0 0 4.13348 407.422 159.692)"/><path d="m3.792-37.833h16.25c5.942 0 10.776 1.75 14.5 5.25 3.734 3.489 5.604 8.041 5.604 13.666 0 5.584-1.891 10.136-5.667 13.646-3.781 3.516-8.719 5.271-14.812 5.271h-15.875zm9.604 7.687v22.479h6.875c2.943 0 5.359-1.031 7.25-3.104 1.901-2.083 2.854-4.776 2.854-8.083 0-3.318-.995-6.026-2.979-8.125-1.99-2.11-4.511-3.167-7.563-3.167z" fill="#95bc4d" transform="matrix(4.13348 0 0 4.13348 563.984 159.692)"/><path d="m23.292-12.208v12.208h-9.563v-11.937l-14-25.896h9.625l9.125 16.479 8.917-16.479h9.625z" fill="#95bc4d" transform="matrix(4.13348 0 0 4.13348 722.557 159.692)"/><g fill="#354c9a"><path d="m32.688-30.104h-11.396v30.104h-9.625v-30.104h-11.292v-7.771h32.313z" transform="matrix(4.13348 0 0 4.13348 870.655 159.692)"/><path d="m37.833-37.833v21.937c0 5.016-1.552 8.995-4.645 11.938-3.099 2.932-7.303 4.396-12.605 4.396-5.333 0-9.578-1.464-12.729-4.396-3.156-2.943-4.729-6.922-4.729-11.938v-21.937h9.625v21.937c0 2.531.729 4.542 2.188 6.042 1.458 1.489 3.359 2.229 5.708 2.229 2.302 0 4.151-.734 5.542-2.208 1.385-1.469 2.083-3.49 2.083-6.063v-21.937z" transform="matrix(4.13348 0 0 4.13348 994.386 159.692)"/><path d="m32.688-30.104h-11.396v30.104h-9.625v-30.104h-11.292v-7.771h32.313z" transform="matrix(4.13348 0 0 4.13348 1150.95 159.692)"/><path d="m21.729-38.146c5.875 0 10.755 1.828 14.646 5.479 3.885 3.657 5.833 8.224 5.833 13.709 0 5.5-1.958 10.114-5.875 13.833-3.906 3.708-8.77 5.563-14.604 5.563-5.833 0-10.703-1.844-14.604-5.542-3.891-3.693-5.833-8.313-5.833-13.854 0-5.511 1.942-10.089 5.833-13.729 3.901-3.636 8.771-5.459 14.604-5.459zm.104 8.042c-2.958 0-5.489 1.078-7.583 3.229-2.083 2.141-3.125 4.792-3.125 7.958 0 3.167 1.052 5.844 3.167 8.021 2.109 2.182 4.625 3.271 7.541 3.271 2.917 0 5.386-1.089 7.417-3.271 2.042-2.177 3.063-4.854 3.063-8.021 0-3.166-1.021-5.817-3.063-7.958-2.031-2.151-4.5-3.229-7.417-3.229z" transform="matrix(4.13348 0 0 4.13348 1274.68 159.692)"/><path d="m26.583 0-5.625-10.646h-7.562v10.646h-9.604v-37.833h16.896c5.01 0 8.885 1.146 11.625 3.437 2.734 2.292 4.104 5.542 4.104 9.75 0 5.834-2.287 9.891-6.854 12.167l7.937 12.479zm-13.187-18.208h7.292c2.093 0 3.718-.521 4.875-1.563 1.151-1.052 1.729-2.568 1.729-4.541 0-1.943-.578-3.422-1.729-4.438-1.157-1.01-2.782-1.521-4.875-1.521h-7.292z" transform="matrix(4.13348 0 0 4.13348 1441.74 159.692)"/><path d="m18.313-38.271c5.666 0 10.635 1.412 14.916 4.229l-3.604 7.5c-1.99-1.151-4.12-2.093-6.396-2.833-2.265-.734-4.177-1.104-5.729-1.104-2.766 0-4.146.917-4.146 2.75 0 1.198.677 2.156 2.042 2.875 1.375.724 3.042 1.349 5 1.875 1.969.515 3.937 1.14 5.896 1.875 1.958.739 3.614 1.937 4.979 3.604 1.375 1.656 2.062 3.74 2.062 6.25 0 3.641-1.427 6.479-4.27 8.521-2.834 2.042-6.454 3.062-10.855 3.062-3.14 0-6.239-.541-9.291-1.625-3.058-1.083-5.724-2.562-8-4.437l3.729-7.396c1.917 1.656 4.167 3.016 6.75 4.083 2.594 1.058 4.901 1.584 6.917 1.584 1.552 0 2.76-.276 3.625-.834.859-.552 1.291-1.375 1.291-2.458 0-1.042-.495-1.917-1.479-2.625-.99-.708-2.224-1.229-3.708-1.562-1.474-.344-3.078-.803-4.813-1.375-1.724-.584-3.328-1.214-4.812-1.896-1.474-.677-2.703-1.771-3.688-3.271-.989-1.5-1.479-3.292-1.479-5.375 0-3.458 1.375-6.219 4.125-8.292 2.76-2.083 6.406-3.125 10.938-3.125z" transform="matrix(4.13348 0 0 4.13348 1590.71 159.692)"/><path d="m3.292-7.333c.833-.834 1.916-1.25 3.25-1.25 1.333 0 2.422.416 3.271 1.25.843.823 1.27 1.896 1.27 3.229s-.427 2.427-1.27 3.271c-.849.843-1.938 1.271-3.271 1.271-1.334 0-2.417-.428-3.25-1.271-.823-.844-1.229-1.938-1.229-3.271s.406-2.406 1.229-3.229z" transform="matrix(4.13348 0 0 4.13348 1721.81 159.692)"/></g></g></svg>
