<svg xmlns="http://www.w3.org/2000/svg" viewBox="0 0 1924 163" stroke-linecap="round" stroke-linejoin="round"><path d="M10.506 129.168l3.531-2.038c.053.09-3.022 17.21-2.982 17.283.029.053 11.471-6.622 11.471-6.622.146.252 10.551 13.549 10.693 13.797.028.053 11.877-7.106 11.987-6.923m2.562-119.058l10.929-6.309 9.754 17.323c.082.138 8.379-4.901 8.404-4.848m-60.329 2.554c.008.016 25.483-15.338 25.755-14.87L11.1 58.423 25.169 50.3c.106.183-8.354 23.473-8.354 23.473.146.252 15.062-8.696 15.062-8.696l-3.616 18.548c.032.057 17.392-10.043 17.392-10.043l-2.302 17.169 17.706-10.222-1.717 18.218 16.067-9.277-6.533 23.485c.025.037 14.301-8.314 14.322-8.269.154.264-17.645 27.89-17.645 27.89.11.192 16.254-9.542 16.323-9.424m42.033-52.921l12.755-7.367m-44.949 3.149l5.06-2.921c.199.342 7.13 18.609 7.232 18.784.122.215 13.296-7.777 13.337-7.704.195.338-13.821 27.288-13.821 27.288.081.139 13.101-7.622 13.125-7.577.053.089-13.788 26.149-13.731 26.243.138.244 13.471-7.777 13.471-7.777l-11.157 28.785 12.552-7.248 7.867 17.498 9.55-5.511M103.094 45.777c.008.008 15.863-9.55 16.034-9.258l-15.554 23.242 14.699-8.489M211.207 64.3l4.649-2.68c.252.435-4.462 25.234-4.332 25.458s14.142-8.273 14.187-8.192c.195.338-14.256 27.541-14.256 27.541.085.146 13.768-8.009 13.797-7.964.052.093-16.059 27.451-16.002 27.549.163.284 15.88-9.168 15.88-9.168m-73.784-52.438c0 .004 4.73-2.847 4.783-2.762l-4.511 23.567 13.915-8.033c.126.219-14.146 26.816-14.146 26.816.13.228 13.585-7.846 13.585-7.846s-14.151 23.986-13.87 24.47c.028.045 13.589-7.846 13.589-7.846l-10.957 22.168 12.641-7.297-2.855 18.873 12.1-6.984 15.843 10.567c.053.09 33.752-19.625 33.809-19.52.089.155-4.877 18.654-4.877 18.654.041.065 5.43-3.189 5.454-3.148m28.501-71.856l25.32-14.619c.142.253-34.61 35.273-34.488 35.477.049.085 18.775-10.844 18.775-10.844.306.529-19.283 30.416-18.986 30.933.04.065 15.224-9.107 15.358-8.867.183.317-10.128 26.015-10.128 26.015l12.317-7.11-1.139 20.118 9.631-5.56 10.425 11.442 11.674-6.74m-6.105-77.933l9.066-5.234c.195.337 11.966 15.814 12.068 15.989.033.057 3.425-2.001 3.437-1.981.114.199 2.168 18.055 2.168 18.055.081.143 13.419-7.809 13.447-7.764.053.085-13.646 26.068-13.593 26.161.138.24 13.471-7.781 13.471-7.781l-13.089 29.904 13.248-7.647-4.95 22.872 5.507-3.181M313.068 12.338s4.791-2.883 4.84-2.798l-4.458 23.534 14.993-8.651c.13.228-14.781 27.183-14.781 27.183.138.24 14.232-8.221 14.232-8.221S313.43 67.55 313.715 68.038c.024.045 13.853-8 13.853-8m59.837 4.649l8.301-4.796 7.192 11.413c.02.037 8.318-4.803 8.318-4.803.174.305-1.754 20.585-1.583 20.878.033.057 12.239-7.317 12.345-7.126m-54.968 23.778l10.539-6.085c.297.513 29.493 5.585 29.644 5.845.167.285 17.742-10.38 17.803-10.278M353.62 74.331c.013.016 24.873-14.969 25.141-14.513l-34.093 40.646 17.409-10.051c.138.244-16.616 28.245-16.616 28.245.138.248 14.741-8.514 14.741-8.514s-9.522 21.416-9.286 21.822c.024.041 12.137-7.008 12.137-7.008l-2.506 17.287 10.267-5.931 6.426 13.513 10.157-5.866m92.136-75.158l15.122-8.729c.204.35 4.816 19.939 4.918 20.118.122.211 13.182-7.712 13.227-7.635.171.297-10.177 25.186-10.177 25.186.086.15 14.35-8.351 14.379-8.302.053.09-14.606 26.618-14.549 26.715.146.256 14.329-8.273 14.329-8.273l-15.017 31.018 14.643-8.456-5.141 18.812 5.389-3.111M441.88 64.304c.004 0 4.6-2.77 4.649-2.684l-3.575 23.026 44.356-25.609c.26.46-44.181 44.156-44.181 44.156.134.236 13.915-8.033 13.915-8.033s-14.269 24.055-13.984 24.535c.024.045 13.67-7.895 13.67-7.895l-14.024 23.937 14.22-8.212-7.68 21.659 8.505-4.914m104.225-74.035l12.759-7.367m-44.945 3.141l5.06-2.921c.199.342 7.13 18.613 7.228 18.788.122.211 13.296-7.777 13.337-7.7.195.338-13.817 27.284-13.817 27.284.081.139 13.097-7.622 13.121-7.577.053.089-13.788 26.149-13.731 26.247.138.24 13.471-7.781 13.471-7.781l-11.153 28.789 12.548-7.244 7.867 17.499 9.554-5.516m-32.108-100.1c.004.008 15.859-9.55 16.025-9.253l-15.554 23.241 14.704-8.489m67.886 13.407l8.302-4.792 7.195 11.409c.02.037 8.314-4.799 8.314-4.799.175.305-1.749 20.581-1.578 20.878.032.053 12.235-7.317 12.341-7.126m-54.96 23.778l10.539-6.085c.297.513 29.497 5.581 29.648 5.841.166.285 17.734-10.376 17.795-10.274m-71.368-19.182c.012.016 24.873-14.969 25.137-14.513L581.5 100.464l17.404-10.051c.138.244-16.615 28.245-16.615 28.245.138.248 14.744-8.514 14.744-8.514s-9.526 21.42-9.29 21.822c.024.041 12.137-7.008 12.137-7.008l-2.501 17.287 10.266-5.931 6.427 13.517 10.156-5.866m92.128-75.162l15.123-8.729c.203.354 4.82 19.943 4.921 20.122.122.211 13.183-7.716 13.232-7.639.171.297-10.177 25.182-10.177 25.182.085.15 14.35-8.351 14.379-8.302.056.09-14.611 26.617-14.554 26.715.151.256 14.33-8.273 14.33-8.273l-15.021 31.018 14.651-8.456-5.138 18.812 5.382-3.107m-74.776-81.842l4.649-2.684-3.576 23.026 44.356-25.609c.264.46-44.177 44.156-44.177 44.156.135.236 13.911-8.033 13.911-8.033s-14.264 24.051-13.984 24.535c.029.045 13.671-7.891 13.671-7.891l-14.025 23.937 14.22-8.212-7.679 21.655 8.505-4.91" fill="none" stroke="#003090" stroke-width="12.2"/><g fill="#003089" fill-rule="nonzero"><path d="M51.091 18.229c5.984 0 11.161.716 15.522 2.148a38.727 38.727 0 0 1 12.161 6.642 40.723 40.723 0 0 0-2.806 6.735 94.433 94.433 0 0 0-2.245 8.981h-2.25a46.437 46.437 0 0 0-2.526-5.706 21.847 21.847 0 0 0-4.299-5.707 24.06 24.06 0 0 0-6.459-4.397c-2.493-1.188-5.483-1.781-8.977-1.781s-6.703.561-9.636 1.684a22.967 22.967 0 0 0-7.667 4.771 21.063 21.063 0 0 0-5.052 7.39 24.304 24.304 0 0 0-1.781 9.355c0 5.866 1.464 10.478 4.401 13.842 2.928 3.368 6.573 6.207 10.937 8.513a108.206 108.206 0 0 0 14.126 6.175c5.052 1.81 9.758 4.022 14.131 6.642a36.076 36.076 0 0 1 10.937 10.103c2.929 4.116 4.397 9.603 4.397 16.461 0 5.739-1.025 11.165-3.087 16.274a38.193 38.193 0 0 1-8.981 13.378c-3.925 3.807-8.729 6.736-14.403 8.794s-12.129 3.087-19.365 3.087c-7.732 0-14-1.029-18.8-3.087s-8.826-4.397-12.068-7.017c1.119-2.867 1.9-5.458 2.335-7.764s.846-5.268 1.216-8.888h2.249c.997 2.246 2.339 4.523 4.023 6.83a30.74 30.74 0 0 0 6.174 6.267c2.433 1.872 5.272 3.401 8.514 4.58 3.241 1.192 6.857 1.782 10.852 1.782 4.116 0 7.825-.716 11.128-2.152a25.25 25.25 0 0 0 8.416-5.8 25.475 25.475 0 0 0 5.336-8.603 29.636 29.636 0 0 0 1.871-10.571c0-5.735-1.468-10.291-4.397-13.658s-6.581-6.175-10.945-8.416a127.876 127.876 0 0 0-14.122-6.174 73 73 0 0 1-14.131-7.017 37.405 37.405 0 0 1-10.941-10.758c-2.929-4.365-4.393-10.226-4.393-17.588 0-5.239.931-10.006 2.806-14.313a31.093 31.093 0 0 1 8.135-11.129c3.555-3.115 7.826-5.548 12.813-7.297 4.999-1.737 10.608-2.611 16.851-2.611m0-6.101c-6.898 0-13.243.996-18.856 2.961-5.703 2.001-10.69 4.848-14.822 8.468a37.264 37.264 0 0 0-9.709 13.289c-2.197 5.043-3.311 10.677-3.311 16.741 0 8.554 1.826 15.615 5.426 20.984A43.58 43.58 0 0 0 22.53 87.058a79.433 79.433 0 0 0 15.31 7.611c4.815 1.781 9.338 3.762 13.447 5.877 3.656 1.879 6.731 4.234 9.139 7 1.948 2.241 2.896 5.402 2.896 9.652 0 2.986-.496 5.821-1.476 8.416a19.11 19.11 0 0 1-4.052 6.557 19.334 19.334 0 0 1-6.418 4.401c-2.522 1.098-5.446 1.651-8.704 1.651-3.271 0-6.211-.472-8.745-1.403a25.55 25.55 0 0 1-6.895-3.69 24.863 24.863 0 0 1-4.962-5.023 31.337 31.337 0 0 1-3.38-5.715l-1.611-3.628H5.353l-.562 5.483a103.43 103.43 0 0 1-1.138 8.371 38.425 38.425 0 0 1-2.026 6.683L0 143.462l3.474 2.806c3.66 2.961 8.204 5.609 13.495 7.879 5.618 2.408 12.553 3.579 21.204 3.579 7.907 0 15.119-1.163 21.44-3.453 6.471-2.343 12.043-5.759 16.57-10.148A44.363 44.363 0 0 0 86.58 128.64c2.339-5.796 3.526-12.036 3.526-18.548 0-8.114-1.859-14.842-5.523-19.999a42.364 42.364 0 0 0-12.772-11.796 86.47 86.47 0 0 0-15.212-7.155 101.924 101.924 0 0 1-13.333-5.824c-3.677-1.944-6.769-4.34-9.185-7.122-1.956-2.245-2.904-5.463-2.904-9.839 0-2.543.443-4.91 1.318-7.029.858-2.074 2.034-3.803 3.596-5.275a16.82 16.82 0 0 1 5.661-3.511 20.79 20.79 0 0 1 7.456-1.281c2.558 0 4.698.399 6.357 1.188 1.888.895 3.515 1.997 4.845 3.278 1.318 1.273 2.363 2.656 3.107 4.1.928 1.794 1.668 3.462 2.209 4.975l1.444 4.047h11.519l1.005-4.869c.691-3.339 1.395-6.162 2.094-8.387a34.777 34.777 0 0 1 2.38-5.711l2.355-4.462-3.937-3.152a45.023 45.023 0 0 0-14.07-7.675c-4.958-1.64-10.819-2.465-17.425-2.465zm68.212 23.123a360.6 360.6 0 0 0-.842 13.939l-.659 13.748 7.675-.093a295.7 295.7 0 0 0 12.162-.468c-.127.374-.192 1.062-.192 2.058v3.929c0 .875.065 1.497.192 1.871a134.68 134.68 0 0 0-10.669-.374h-9.168c-.126.501-.277 2.498-.46 5.988-.191 3.493-.35 7.638-.468 12.442l-.374 29.09c0 3.49.09 6.923.281 10.287s.777 6.394 1.781 9.074c.993 2.685 2.49 4.837 4.487 6.455s4.864 2.433 8.606 2.433c.993 0 2.335-.126 4.019-.374a32.56 32.56 0 0 0 4.401-.936v4.491c-2.119.374-4.466.841-7.016 1.407a34.527 34.527 0 0 1-7.395.842c-7.858 0-13.65-1.94-17.397-5.8-3.742-3.869-5.613-9.543-5.613-17.027a367.9 367.9 0 0 1 .188-10.945l.467-12.91a861.51 861.51 0 0 0 .655-34.513h-5.987c-1.001 0-2.058.033-3.181.094a90.23 90.23 0 0 0-3.551.28 24.15 24.15 0 0 0 .374-4.303 20.505 20.505 0 0 0-.093-1.871 22.754 22.754 0 0 0-.281-1.871c5.613.374 9.73.565 12.349.565a280.58 280.58 0 0 1-.285-9.355 254.195 254.195 0 0 0-.467-11.6l15.529-6.549h.932m6.605-6.105h-8.778l-1.134.48-15.53 6.549-3.986 1.684.268 4.319a237.68 237.68 0 0 1 .456 11.32l.061 2.941-5.613-.338-7.928-.529 1.534 7.798c.17.845.258 1.704.264 2.566a18.75 18.75 0 0 1-.301 3.311l-1.289 7.85 7.911-.785a83.14 83.14 0 0 1 3.299-.26 52.667 52.667 0 0 1 2.705-.085l-.171 12.751-.464 15.416-.468 12.967-.191 11.136c0 9.083 2.465 16.238 7.33 21.269 4.934 5.084 12.259 7.659 21.781 7.659 2.794 0 5.719-.333 8.704-.984a155.61 155.61 0 0 1 6.765-1.355l5.043-.89v-17.808l-7.85 2.351a26.004 26.004 0 0 1-3.547.749 23.253 23.253 0 0 1-3.128.309c-2.225 0-3.917-.378-4.759-1.066-1.143-.931-1.997-2.188-2.615-3.84-.781-2.102-1.257-4.551-1.407-7.293-.186-3.313-.276-6.63-.273-9.949l.37-28.931.476-12.487h3.523c3.406-.014 6.812.104 10.209.353l9.217.7-2.839-8.342-.004-.309v-3.93c0-.195 0-.366.008-.512l2.762-8.151-9.03.516a288.29 288.29 0 0 1-11.914.456l-1.147.02.33-7.317a350.94 350.94 0 0 1 .825-13.712l.525-6.597z"/><path d="M226.557 60.319c-.626 9.729-1 19.117-1.122 28.155l-.188 28.72.188 16.461.561 15.526a72.796 72.796 0 0 0-7.293-.375 72.27 72.27 0 0 0-7.301.375c.264-2.485.389-4.982.374-7.48v-8.05h-.378c-3.242 5.991-7.419 10.388-12.536 13.191a34.1 34.1 0 0 1-16.644 4.21c-9.734 0-17.372-2.591-22.92-7.765s-8.326-12.625-8.326-22.359c0-6.61.093-12.255.276-16.933a356.42 356.42 0 0 0 .277-13.935l-.366-29.749c3.12.626 5.735.935 7.858.935 1.993 0 4.552-.309 7.671-.935-.626 7.484-1.098 15.684-1.407 24.604a782.58 782.58 0 0 0-.468 27.406c0 6.488.566 11.446 1.684 14.875s2.494 6.02 4.116 7.765c1.749 1.993 3.958 3.644 6.643 4.954s5.832 1.965 9.448 1.965c5.239 0 9.599-1.152 13.097-3.462 3.486-2.306 6.045-5.145 7.676-8.513.866-2.119 1.558-3.929 2.054-5.426s.907-3.49 1.216-5.987.496-5.861.565-10.104l.09-17.396V75.275l-.09-7.854-.28-7.114c1.37.252 2.676.468 3.929.655a26.52 26.52 0 0 0 3.929.28c1.371 0 2.685-.093 3.929-.28a61.655 61.655 0 0 0 3.738-.643m-53.109-7.582l-7.964 1.603c-3.355.679-5.369.817-6.467.817-1.72 0-3.958-.276-6.654-.817l-7.484-1.505.179 7.63.272 15.453.094 14.15c0 4.446-.09 9.054-.273 13.7a450.76 450.76 0 0 0-.28 17.168c0 11.45 3.457 20.476 10.266 26.821 6.683 6.235 15.794 9.404 27.077 9.404 6.984 0 13.569-1.668 19.572-4.962a33.773 33.773 0 0 0 3.368-2.115l-.651 5.922 7.497-.753a67.12 67.12 0 0 1 6.695-.341c2.168 0 4.417.114 6.687.341l7.057.708-.358-7.085-.553-15.359-.187-16.323.187-28.635c.118-8.92.496-18.291 1.11-27.845l.513-7.952-7.81 1.578a72.94 72.94 0 0 1-3.453.602c-.998.146-2.006.216-3.014.211a20.67 20.67 0 0 1-3.014-.211 124.44 124.44 0 0 1-3.738-.623l-7.606-1.399.41 7.724.277 6.952.085 7.691v15.717l-.089 17.311c-.065 4.002-.24 7.183-.517 9.436-.321 2.571-.695 4.039-.951 4.82a84.47 84.47 0 0 1-1.831 4.849c-1.155 2.314-2.949 4.254-5.47 5.922-2.457 1.627-5.736 2.453-9.734 2.453-2.664 0-4.942-.452-6.768-1.347-1.965-.956-3.51-2.098-4.735-3.494-.809-.878-1.858-2.444-2.904-5.637-.63-1.932-1.383-5.751-1.383-12.979 0-9.278.155-18.426.464-27.191.305-8.782.769-16.958 1.391-24.307l.687-8.103zM329.561 8.125c-.378 3.991-.687 9.758-.935 17.303l-.655 24.975-.464 28.061-.191 26.377.191 23.201.375 21.139a72.89 72.89 0 0 0-7.297-.375c-2.25 0-4.621.122-7.11.375l.565-17.771h-.378c-1.001 1.997-2.335 4.149-4.019 6.451a32.746 32.746 0 0 1-6.361 6.455 32.077 32.077 0 0 1-9.071 4.861c-3.494 1.248-7.545 1.875-12.162 1.875-4.742 0-9.387-.814-13.935-2.437-4.555-1.615-8.606-4.271-12.161-7.948s-6.423-8.419-8.603-14.219-3.278-12.748-3.278-20.858c0-7.981 1.187-14.903 3.555-20.765s5.458-10.758 9.261-14.687 8.103-6.858 12.906-8.794a38.5 38.5 0 0 1 14.501-2.9c13.837 0 23.445 6.235 28.805 18.706h.379V58.818l-.09-14.313-.378-26.101-.277-10.287a135.79 135.79 0 0 0 4.304.655 31 31 0 0 0 4.116.277 29 29 0 0 0 4.019-.277l4.388-.647m-43.216 136.569c4.86 0 9.042-1.216 12.536-3.644 3.485-2.433 6.386-5.613 8.696-9.542s3.99-8.388 5.056-13.378a72.01 72.01 0 0 0 1.586-14.964c0-11.975-2.306-21.106-6.915-27.411-4.624-6.296-11.417-9.445-20.394-9.445-4.494 0-8.391 1.029-11.698 3.088s-6.048 4.929-8.232 8.606-3.799 7.985-4.861 12.91a75.143 75.143 0 0 0-1.59 15.806c0 7.485.776 13.659 2.334 18.524s3.559 8.761 5.992 11.694 5.202 4.958 8.326 6.076a26.975 26.975 0 0 0 9.164 1.68M306.32.869l.305 7.509c.122 2.948.216 6.329.273 10.132l.008.378.37 25.71.089 14.993c-6.17-4.775-13.939-7.24-23.082-7.24-5.634 0-11.275 1.122-16.783 3.339a43.39 43.39 0 0 0-15.009 10.21c-4.336 4.482-7.882 10.083-10.534 16.644-2.652 6.568-3.999 14.325-3.999 23.05 0 8.81 1.237 16.55 3.669 23.009 2.461 6.557 5.804 12.044 9.925 16.311 4.205 4.352 9.086 7.537 14.504 9.457a47.465 47.465 0 0 0 15.977 2.786c5.284 0 10.067-.753 14.212-2.229 4.075-1.448 7.708-3.4 10.775-5.796l.349-.273-.004.13-.223 6.96 6.931-.696a65.603 65.603 0 0 1 6.499-.341c2.16 0 4.414.114 6.691.341l6.83.68-.493-27.997-.191-23.095.191-26.296.464-28.016.651-24.897c.248-7.432.557-13.13.915-16.937l.74-7.793-7.736 1.187-4.344.647a22.706 22.706 0 0 1-3.148.216c-1.094 0-2.205-.078-3.299-.224a135.467 135.467 0 0 1-4.112-.627L306.32.869zm-19.975 137.724a20.864 20.864 0 0 1-7.094-1.322c-2.107-.752-3.966-2.135-5.702-4.234-1.928-2.327-3.568-5.577-4.873-9.66-1.359-4.239-2.046-9.848-2.046-16.665 0-5.145.488-10.03 1.452-14.529.923-4.262 2.314-7.992 4.145-11.079 1.692-2.848 3.725-4.987 6.211-6.537 2.338-1.456 5.112-2.164 8.472-2.164 7.073 0 11.991 2.209 15.477 6.956 3.803 5.198 5.731 13.211 5.731 23.798 0 4.544-.488 9.152-1.452 13.7-.924 4.319-2.384 8.208-4.348 11.551-1.871 3.189-4.137 5.682-6.923 7.627-2.469 1.724-5.43 2.558-9.05 2.558zm100.446-80.141c6.605 0 12.312 1.025 17.111 3.083 4.808 2.058 8.827 4.804 12.068 8.233a32.49 32.49 0 0 1 7.204 12.068 45.93 45.93 0 0 1 2.335 14.781 75.86 75.86 0 0 1-.09 3.648 92.113 92.113 0 0 1-.281 3.649l-20.02-.374-20.011-.187c-4.121 0-8.209.069-12.26.187l-12.255.374c-.148.926-.21 1.865-.187 2.802v2.433c0 4.864.716 9.416 2.152 13.658s3.518 7.887 6.268 10.942a29.975 29.975 0 0 0 10.095 7.297c3.994 1.81 8.611 2.709 13.846 2.709 2.493 0 5.051-.338 7.675-1.025a43.18 43.18 0 0 0 14.687-7.017 35.3 35.3 0 0 0 5.699-5.239l.94.562-1.123 9.168c-3.742 2.993-8.387 5.552-13.939 7.671a48.11 48.11 0 0 1-17.303 3.181c-6.736 0-12.882-1.033-18.43-3.092s-10.356-5.047-14.407-8.976a40.34 40.34 0 0 1-9.351-13.94c-2.184-5.36-3.278-11.161-3.278-17.396 0-15.338 3.648-27.378 10.941-36.107 7.309-8.729 17.942-13.093 31.914-13.093m-1.501 38.909c4.12 0 8.293-.061 12.536-.183l12.344-.374c0-3.368-.276-6.923-.842-10.665a33.314 33.314 0 0 0-3.368-10.478 22.356 22.356 0 0 0-7.012-8.045c-2.994-2.119-6.923-3.181-11.787-3.181-4.613 0-8.514 1.062-11.69 3.181a27.21 27.21 0 0 0-7.859 7.952 37.53 37.53 0 0 0-4.677 10.478 54.59 54.59 0 0 0-1.961 10.758l12.069.374c4.173.126 8.256.183 12.247.183m1.501-45.01c-15.798 0-28.103 5.141-36.583 15.281-8.208 9.823-12.365 23.286-12.365 40.02 0 7.004 1.257 13.63 3.73 19.699a46.57 46.57 0 0 0 10.75 16.017 47.177 47.177 0 0 0 16.534 10.319c6.211 2.303 13.13 3.474 20.553 3.474a54.404 54.404 0 0 0 19.479-3.583c6.113-2.331 11.352-5.231 15.574-8.607l1.94-1.554.305-2.465 1.607-13.121-3.425-2.034-.939-.561-4.389-2.612-3.343 3.864a29.67 29.67 0 0 1-4.727 4.336 37.33 37.33 0 0 1-12.585 6.008c-2 .536-4.062.813-6.133.826-4.348 0-8.16-.729-11.328-2.164a23.99 23.99 0 0 1-8.07-5.813c-2.184-2.424-3.872-5.389-5.031-8.818a36.07 36.07 0 0 1-1.827-11.023l6.525-.199c4.12-.122 8.183-.187 12.068-.187l19.902.187 25.649.48.557-5.601c.13-1.33.228-2.632.301-3.901.065-1.326.098-2.639.098-3.994 0-5.877-.895-11.507-2.656-16.729a38.746 38.746 0 0 0-8.554-14.31c-3.807-4.026-8.55-7.272-14.098-9.652-5.54-2.379-12.105-3.583-19.519-3.583zm-18.788 38.571c.232-1.057.5-2.135.805-3.229a31.88 31.88 0 0 1 3.925-8.802 20.97 20.97 0 0 1 6.122-6.195c2.176-1.448 4.889-2.156 8.306-2.156 3.555 0 6.337.692 8.265 2.059 2.204 1.566 3.88 3.485 5.117 5.873 1.37 2.636 2.294 5.52 2.753 8.57a70.83 70.83 0 0 1 .476 3.852l-6.125.183a416.15 416.15 0 0 1-24.426 0l-5.218-.155zm119.245-32.47c3.498 0 7.033.5 10.6 1.497s6.793 2.713 9.665 5.145 5.222 5.735 7.036 9.917 2.721 9.513 2.721 15.997c-.004 5.52-.129 11.04-.374 16.554a414.75 414.75 0 0 0-.374 18.052v12.162c-.011 3.806.113 7.611.37 11.409a79.684 79.684 0 0 0-7.952-.374c-2.648 0-5.243.122-7.76.374l.841-20.016c.31-6.858.468-13.907.468-21.143V96.617c0-9.355-1.81-16.433-5.426-21.232-3.62-4.804-8.606-7.204-14.968-7.204-8.729 0-15.123 2.685-19.178 8.046s-6.077 12.906-6.077 22.635v15.9a585.07 585.07 0 0 0 .281 17.681c.183 6.174.586 11.759 1.216 16.742a96 96 0 0 0-16.835 0c.618-4.987 1.025-10.568 1.216-16.742l.277-17.681V95.307c0-5.609-.094-11.507-.277-17.677a206.043 206.043 0 0 0-1.216-17.307c3.486.626 6.296.936 8.415.936.997 0 2.091-.094 3.279-.281l4.201-.655a202.61 202.61 0 0 0-.557 14.968h.374c3.502-5.361 7.696-9.505 12.569-12.442 4.897-2.933 10.709-4.397 17.465-4.397m0-6.101c-7.842 0-14.768 1.773-20.593 5.263a41.305 41.305 0 0 0-3.083 2.05l.488-6.557-7.594 1.188-1.639.252-2.583.403a14.72 14.72 0 0 1-2.314.207c-1.217 0-3.474-.146-7.338-.842l-8.082-1.456.939 8.16c.594 5.169.993 10.819 1.18 16.794l.273 17.49v19.455c0 5.438-.09 11.328-.273 17.498a179.92 179.92 0 0 1-1.171 16.172l-.932 7.484 7.521-.655a91.366 91.366 0 0 1 7.883-.349 91.92 91.92 0 0 1 7.89.349l7.533.659-.947-7.5a171.477 171.477 0 0 1-1.172-16.156l-.276-17.498v-15.9c0-8.33 1.627-14.708 4.84-18.954 2.863-3.787 7.541-5.625 14.313-5.625 4.434 0 7.639 1.517 10.092 4.775 2.786 3.697 4.197 9.607 4.197 17.559v11.409c0 7.053-.154 14.074-.459 20.866l-.846 20.057-.269 7 6.972-.692a72.806 72.806 0 0 1 7.158-.341c2.575 0 5.048.114 7.354.341l7.184.712-.497-7.199a162.49 162.49 0 0 1-.354-10.99v-12.162c0-6.183.123-12.166.371-17.791a389.8 389.8 0 0 0 .378-16.819c0-7.297-1.086-13.496-3.226-18.426-2.184-5.023-5.108-9.111-8.696-12.141a31.52 31.52 0 0 0-11.958-6.357 45.34 45.34 0 0 0-12.264-1.733z"/><path d="M557.371 35.251a364.64 364.64 0 0 0-.842 13.939l-.658 13.748 7.675-.093c3.742-.061 7.793-.216 12.161-.468-.126.374-.191 1.062-.191 2.058v3.929c0 .875.065 1.497.191 1.871a134.18 134.18 0 0 0-10.668-.374h-9.168c-.127.501-.277 2.498-.46 5.988-.191 3.493-.35 7.638-.468 12.442l-.374 29.09a180.71 180.71 0 0 0 .281 10.287c.187 3.368.776 6.394 1.781 9.074.993 2.685 2.489 4.837 4.487 6.455s4.864 2.433 8.606 2.433c.993 0 2.335-.126 4.023-.374a32.657 32.657 0 0 0 4.397-.936v4.491c-2.119.374-4.466.841-7.016 1.407a34.527 34.527 0 0 1-7.395.842c-7.858 0-13.646-1.94-17.397-5.8-3.742-3.869-5.609-9.543-5.609-17.027a367.03 367.03 0 0 1 .183-10.945l.468-12.91c.454-11.499.673-23.005.655-34.513h-5.987a58.66 58.66 0 0 0-3.177.094c-1.123.065-2.31.158-3.555.28a24.15 24.15 0 0 0 .374-4.303 20.505 20.505 0 0 0-.093-1.871 23.19 23.19 0 0 0-.281-1.871c5.613.374 9.729.565 12.349.565a280.58 280.58 0 0 1-.285-9.355 252.8 252.8 0 0 0-.468-11.6l15.53-6.549h.931m6.606-6.105h-8.778l-1.134.48-15.53 6.549-3.986 1.684.268 4.319c.244 3.852.399 7.663.456 11.32l.061 2.941-5.613-.338-7.928-.529 1.534 7.798c.17.845.258 1.704.264 2.566a18.75 18.75 0 0 1-.301 3.311l-1.289 7.85 7.911-.785a82.585 82.585 0 0 1 3.303-.26 52.516 52.516 0 0 1 2.701-.085 816.52 816.52 0 0 1-.635 28.167l-.468 12.967-.187 11.136c0 9.087 2.461 16.242 7.326 21.269 4.938 5.084 12.267 7.659 21.781 7.659 2.794 0 5.719-.333 8.704-.984 2.245-.502 4.5-.953 6.764-1.355l5.044-.89v-17.808l-7.85 2.351a26.004 26.004 0 0 1-3.547.749 23.253 23.253 0 0 1-3.128.309c-2.225 0-3.917-.378-4.763-1.07-1.139-.927-1.993-2.184-2.611-3.836-.781-2.102-1.257-4.551-1.407-7.293-.186-3.313-.277-6.63-.273-9.949l.37-28.931.476-12.487h3.522c3.407-.014 6.813.104 10.21.353l9.217.7-2.839-8.342-.005-.309v-3.93c0-.195 0-.366.009-.512l2.761-8.151-9.029.516a288.29 288.29 0 0 1-11.914.456l-1.147.02.33-7.317a350.94 350.94 0 0 1 .825-13.712l.525-6.597z"/><path d="M623.618 58.452c6.606 0 12.312 1.025 17.112 3.083s8.826 4.804 12.076 8.233a32.58 32.58 0 0 1 7.199 12.068 45.9 45.9 0 0 1 2.335 14.781 71.14 71.14 0 0 1-.366 7.297l-20.016-.374-20.024-.187c-4.116 0-8.2.069-12.255.187l-12.251.374a15.284 15.284 0 0 0-.187 2.802v2.433c0 4.864.711 9.416 2.147 13.658s3.527 7.887 6.268 10.942a29.92 29.92 0 0 0 10.104 7.297c3.986 1.81 8.602 2.709 13.841 2.709 2.49 0 5.048-.338 7.671-1.025a43.185 43.185 0 0 0 14.688-7.017 35.84 35.84 0 0 0 5.707-5.239l.931.562-1.118 9.168c-3.742 2.993-8.388 5.552-13.94 7.671a48.086 48.086 0 0 1-17.307 3.181c-6.731 0-12.877-1.033-18.421-3.092-5.552-2.058-10.356-5.047-14.403-8.976a40.247 40.247 0 0 1-9.359-13.94c-2.184-5.36-3.274-11.161-3.274-17.396 0-15.338 3.644-27.378 10.945-36.107 7.293-8.729 17.925-13.093 31.897-13.093m-1.501 38.909c4.116 0 8.294-.061 12.536-.183l12.349-.374c0-3.368-.281-6.923-.846-10.665a33.11 33.11 0 0 0-3.364-10.478 22.397 22.397 0 0 0-7.02-8.045c-2.99-2.119-6.919-3.181-11.78-3.181-4.62 0-8.517 1.062-11.694 3.181a27.364 27.364 0 0 0-7.858 7.952 37.643 37.643 0 0 0-4.678 10.478 55.596 55.596 0 0 0-1.96 10.758l12.068.374c4.169.126 8.253.183 12.247.183m1.501-45.01c-15.802 0-28.106 5.145-36.579 15.285-8.204 9.811-12.365 23.274-12.365 40.016 0 7.008 1.253 13.638 3.726 19.699a46.43 46.43 0 0 0 10.763 16.017 46.97 46.97 0 0 0 16.522 10.315c6.202 2.302 13.121 3.47 20.544 3.47a54.404 54.404 0 0 0 19.483-3.584c6.11-2.33 11.349-5.226 15.575-8.606l1.944-1.554 1.42-11.637.475-3.925-3.384-2.038-5.316-3.205-3.364 3.86c-1.346 1.546-2.945 3.006-4.746 4.348a37.5 37.5 0 0 1-12.589 6.012 24.22 24.22 0 0 1-6.13.825c-4.348 0-8.159-.728-11.32-2.163a23.906 23.906 0 0 1-8.082-5.817c-2.184-2.436-3.876-5.402-5.031-8.818a36.067 36.067 0 0 1-1.822-11.023l6.524-.199c4.124-.122 8.184-.187 12.064-.187l19.914.187 25.646.48.557-5.601a74.35 74.35 0 0 0 .394-7.895c0-5.878-.894-11.507-2.656-16.73a38.743 38.743 0 0 0-8.537-14.301c-3.824-4.035-8.566-7.28-14.114-9.656-5.54-2.371-12.105-3.575-19.516-3.575zm-18.783 38.571a60.97 60.97 0 0 1 .805-3.241 31.72 31.72 0 0 1 3.925-8.794 21.16 21.16 0 0 1 6.121-6.195c2.173-1.444 4.89-2.152 8.306-2.152 3.551 0 6.329.692 8.253 2.059a16.183 16.183 0 0 1 5.133 5.877c1.367 2.628 2.286 5.507 2.746 8.558.195 1.31.358 2.599.48 3.86l-6.13.183c-8.14.239-16.285.239-24.425 0l-5.214-.155zm119.245-32.47c3.585.013 7.152.516 10.6 1.497a25.4 25.4 0 0 1 9.664 5.145c2.876 2.433 5.223 5.735 7.037 9.917s2.725 9.513 2.725 15.997a373.32 373.32 0 0 1-.378 16.554 406.994 406.994 0 0 0-.379 18.052v12.162a187.31 187.31 0 0 0 .094 5.897 143.23 143.23 0 0 0 .281 5.512 79.604 79.604 0 0 0-7.948-.374c-2.66 0-5.243.122-7.769.374l.842-20.016a469.74 469.74 0 0 0 .472-21.143V96.617c0-9.355-1.814-16.433-5.426-21.232-3.628-4.804-8.607-7.204-14.968-7.204-8.733 0-15.131 2.685-19.178 8.046-4.056 5.361-6.081 12.906-6.081 22.635v15.9a597.96 597.96 0 0 0 .276 17.681c.191 6.174.594 11.759 1.216 16.742a95.953 95.953 0 0 0-16.831 0c.619-4.987 1.029-10.568 1.217-16.742l.28-17.681V95.307c0-5.609-.089-11.507-.28-17.677a204.343 204.343 0 0 0-1.217-17.307c3.486.626 6.297.936 8.416.936.996 0 2.087-.094 3.278-.281l4.21-.655a197.804 197.804 0 0 0-.565 14.968h.374c3.502-5.361 7.696-9.505 12.577-12.442s10.701-4.397 17.461-4.397m0-6.101c-7.854 0-14.781 1.773-20.593 5.267a40.16 40.16 0 0 0-3.075 2.042l.496-6.544-11.836 1.834c-.765.13-1.539.199-2.315.207-1.216 0-3.473-.146-7.338-.842l-8.082-1.456.94 8.16c.602 5.214 1.001 10.864 1.18 16.79l.276 17.494v19.455a576.52 576.52 0 0 1-.276 17.49 177.58 177.58 0 0 1-1.172 16.18l-.931 7.484 7.52-.655a91.4 91.4 0 0 1 7.883-.349 91.6 91.6 0 0 1 7.883.349l7.521.655-.932-7.484a177.94 177.94 0 0 1-1.171-16.18l-.273-17.49v-15.9c0-8.326 1.627-14.704 4.845-18.954 2.859-3.787 7.541-5.626 14.313-5.626 4.429 0 7.635 1.522 10.095 4.78 2.782 3.697 4.194 9.607 4.194 17.555v11.409a465.15 465.15 0 0 1-.464 20.866l-.846 20.061-.264 6.992 6.963-.688a73.085 73.085 0 0 1 7.171-.341c2.579 0 5.048.114 7.346.341l7.216.716-.529-7.232a125.146 125.146 0 0 1-.269-5.267 174.728 174.728 0 0 1-.089-5.694v-12.162c0-6.297.122-12.28.37-17.783a379.22 379.22 0 0 0 .386-16.827c0-7.281-1.086-13.476-3.229-18.422-2.184-5.031-5.109-9.115-8.696-12.149a31.596 31.596 0 0 0-11.959-6.358 45.62 45.62 0 0 0-12.259-1.724z"/></g><path d="M855.358 64.148l13.747-7.937 2.383 11.189 11.426-6.598-2.559 16.154s12.746-7.681 12.886-7.441c.059.104-8.718 17.967-8.695 18.003 0 0 14.057-8.465 14.208-8.202.115.196-12.67 21.301-12.537 21.528.077.135 16.023-9.252 16.023-9.252l-17.31 23.309 17.885-10.325-24.218 28.578c.095.166 21.36-12.419 21.396-12.353m-62.708-53.309l18.87-10.892m-41.68-51.003l2.904-1.676c.059.102-2.419 11.334-2.37 11.421.173.304 17.055-9.848 17.055-9.848l-16.598 23.432c.064.112 15.727-9.081 15.727-9.081L815.675 39.46l15.189-8.769c.041.071-15.242 20.304-15.02 20.685.013.023 14.739-8.593 14.774-8.529L815.88 64.521l14.498-8.371-14.498 21.097 14.297-8.253-14.297 19.967c.025.046 19.998-11.77 20.095-11.602l-20.116 23.166 14.846-8.57c.113.194-15.132 21.998-15.017 22.195l13.763-7.944c.192.329-14.189 18.09-13.967 18.473.015.028 14.274-8.606 14.432-8.333l-14.938 22.699c.018.033 17.623-10.312 17.684-10.21l-18.305 20.506 22.267-12.856 3.568 10.187c.046.082 4.902-2.835 4.905-2.83.089.156 6.421 7.356 6.424 7.359.051.084 8.335-4.813 8.335-4.813l7.99 4.716 22.463-12.971m31.437-78.294l2.853-1.648-2.041 12.486c.056.097 15.988-9.29 16.013-9.244l-15.62 23.28c.008.013 14.639-8.583 14.696-8.485 0 0-14.775 19.824-14.548 20.217.09.154 14.361-8.291 14.361-8.291.072.125-14.524 18.21-14.361 18.494.044.071 14.267-8.236 14.267-8.236l-14.307 18.547 14.307-8.258c.107.184-14.527 22.047-14.527 22.047s14.493-8.731 14.649-8.46c.251.429-15.627 21.497-15.367 21.95l15.658-9.04c.036.061-3.295 14.718-3.295 14.718l4.23-2.442M921.161 19.886l10.064-5.809c.089.156-9.002 15.073-8.925 15.209.171.296 16.803-9.702 16.803-9.702m25.163-14.077l2.904-1.675c.059.102-2.419 11.333-2.37 11.423.168.291 16.531-9.543 16.531-9.543l-16.074 23.127c.064.11 15.395-8.887 15.395-8.887l-15.181 19.421 14.836-8.567c.041.071-14.884 20.108-14.667 20.486.013.02 14.401-8.399 14.435-8.335l-14.402 21.477 14.277-8.243-14.277 20.966 14.266-8.238-14.266 19.953c.018.03 14.195-8.356 14.264-8.236l-14.284 19.797 14.284-8.248c.112.191-14.565 21.679-14.453 21.87l14.522-8.383c.196.342-14.954 18.511-14.726 18.91.018.028 14.723-8.877 14.887-8.593l-15.375 22.951c.015.028 15.663-9.165 15.714-9.073l-16.325 19.367 16.665-9.625m31.935-70.684l21.03-12.141-31.222 30.588 22.351-12.904-24.65 28.907s17.671-10.646 17.863-10.314c.084.148-17.109 22.79-17.079 22.844 0 0 15.835-9.538 16.008-9.242.115.199-12.751 21.347-12.618 21.574.066.118 13.801-7.97 13.801-7.97l-8.018 17.942 11.74-6.779-1.742 15.602c.046.074 9.642-5.607 9.66-5.579.067.115 7.122 10.261 7.153 10.312.007.013 11.068-6.682 11.195-6.462m-6.83-81.173l11.398-6.58 4.414 8.761c.02.036 5.867-3.41 5.877-3.394l3.732 12.107c0 .003 3.717-2.178 3.729-2.153l.455 11.556c.097.169 15.807-9.124 15.807-9.124.069.122-14.154 18.006-13.996 18.281.041.072 13.881-8.013 13.881-8.013l-13.508 18.088 13.436-7.758c.107.189-15.147 22.405-15.147 22.405s14.973-9.02 15.137-8.739c.327.57-23.812 26.024-23.467 26.624l23.572-13.607c.058.105-14.085 20.949-14.085 20.949l14.332-8.277c.018.031-6.789 14.417-6.789 14.417l7.05-4.069M1071.802 5.635l2.961-1.709c.061.107-2.78 11.541-2.726 11.63.169.296 16.708-9.648 16.708-9.648l-16.506 23.375c.064.113 15.781-9.109 15.781-9.109l-15.635 19.682 15.303-8.836c.043.072-15.436 20.415-15.214 20.798.013.023 14.879-8.675 14.917-8.613l-14.886 21.76 14.639-8.455m57.644 5.648l10.039-5.796 5.831 9.196 7.998-4.618-.217 14.8s10.626-6.404 10.744-6.205c.056.1-7.86 17.475-7.84 17.51 0 0 13.311-8.015 13.454-7.768m-60.679 23.59l11.508-6.644 9.022 6.1c.038.064 10.516-6.113 10.534-6.082l13.778 6.307c.01.018 18.3-10.729 18.369-10.606M1115 68.766l19.768-11.413c.196.34-28.359 26.037-28.188 26.331.24.414 23.334-13.472 23.334-13.472l-26.478 29.135c.071.128 17.932-10.353 17.932-10.353l-18.124 21.117 24.415-14.095c.054.095-22.765 24.489-22.476 24.992.013.023 14.874-8.674 14.912-8.611l-10.296 19.11 12.838-7.413-5.732 16.034 11.27-6.506-1.941 12.833c.012.023 10.398-6.12 10.45-6.034l2.01 10.392 11.191-6.463c.061.107 13.658 5.494 13.722 5.604l19.214-11.093m57.463-72.685l16.966-9.793-.401 12.794 13.257-7.655-5.804 18.029s13.83-8.333 13.981-8.072c.068.12-11.894 19.794-11.868 19.837 0 0 14.943-8.999 15.104-8.72.125.217-14.956 22.596-14.815 22.843.074.128 15.081-8.708 15.081-8.708l-15.339 22.17 14.999-8.659-15.411 23.495c.067.117 15.109-8.785 15.138-8.739.15.261-15.827 23.424-15.761 23.539.01.018 15.594-9.413 15.773-9.104m-57.124-71.939l18.969-10.953m-39.649 3.298l2.854-1.648c.058.102-2.149 11.178-2.098 11.267.159.271 15.355-8.863 15.355-8.863l-14.928 22.463c.194.337 47.136-27.212 47.136-27.212l-46.97 37.772 15.814-9.132c.044.071-16.034 20.749-15.806 21.142.013.021 14.248-8.306 14.284-8.248l-14.353 21.449 14.33-8.273-14.535 21.117 14.678-8.473-15.337 20.57c.021.036 15.516-9.132 15.592-9.001l-6.023 15.027 6.81-3.931" fill="none" stroke="#89ba17" stroke-width="7.66"/><path d="M832.483 5.431c-.391 2.6-.718 6.72-.976 12.373l-.585 18.897-.388 21.434-.388 19.973h.388c4.417-7.015 9.285-12.147 14.614-15.396s11.494-4.866 18.509-4.866c6.753 0 12.6 1.262 17.535 3.796s9.025 5.883 12.277 10.034c3.246 4.161 5.681 8.994 7.305 14.519s2.437 11.333 2.437 17.436c0 7.533-1.139 14.419-3.41 20.654s-5.392 11.595-9.354 16.075a40.617 40.617 0 0 1-14.029 10.327c-5.392 2.402-11.203 3.602-17.436 3.602s-11.855-1.333-16.854-3.992-8.799-5.875-11.397-9.646a235.35 235.35 0 0 0-13.055 11.303h-3.508c.258-3.121.486-6.884.682-11.303l.488-14.123.389-29.715V61.545l-.389-29.81-.488-14.516a322.267 322.267 0 0 0-.682-11.788c3.635.651 6.557.973 8.77.973 1.427 0 2.924-.095 4.482-.289l5.063-.684m25.523 143.208c4.024 0 7.722-1.073 11.107-3.216 3.372-2.146 6.332-5.224 8.866-9.255 2.531-4.025 4.511-8.83 5.942-14.419s2.143-11.819 2.143-18.701c0-5.974-.749-11.272-2.241-15.883s-3.445-8.475-5.844-11.589c-2.406-3.121-5.198-5.487-8.378-7.114-3.186-1.624-6.463-2.434-9.842-2.434a30.76 30.76 0 0 0-11.592 2.238c-3.704 1.496-6.917 3.964-9.643 7.405s-4.907 7.923-6.529 13.443-2.434 12.31-2.434 20.364c-.003 26.108 9.477 39.161 28.445 39.161M809.956.784l.391 4.951c.258 3.251.483 7.17.672 11.65l.485 14.453.388 29.71v35.265l-.388 29.613-.485 14.054a301.34 301.34 0 0 1-.672 11.158l-.34 4.145h9.178l1.106-1.034a226.2 226.2 0 0 1 9.878-8.69c2.682 2.899 6.084 5.453 10.159 7.62 5.54 2.947 11.816 4.442 18.652 4.442 6.746 0 13.137-1.324 18.997-3.934a44.63 44.63 0 0 0 15.341-11.288c4.258-4.815 7.65-10.636 10.082-17.298 2.417-6.641 3.643-14.031 3.643-21.97a65.76 65.76 0 0 0-2.593-18.517c-1.757-5.959-4.432-11.272-7.962-15.796-3.591-4.588-8.146-8.315-13.548-11.086-5.454-2.8-11.942-4.22-19.286-4.22-7.696 0-14.593 1.827-20.504 5.428-3.129 1.908-6.117 4.409-8.948 7.479l.161-8.718.388-21.428.585-18.793c.248-5.476.565-9.505.938-11.977l.766-5.091-5.096.725-5.001.675c-1.382.171-2.731.26-4.008.26-1.987 0-4.71-.306-8.092-.912l-4.887-.876zm48.05 144.023c-22.064 0-24.616-20.164-24.616-35.329 0-7.663.766-14.149 2.278-19.281 1.474-5.016 3.444-9.101 5.855-12.146 2.33-2.94 4.971-4.978 8.077-6.232a27.135 27.135 0 0 1 10.159-1.96c2.789 0 5.438.659 8.1 2.018 2.656 1.359 5.045 3.393 7.085 6.042 2.121 2.751 3.883 6.26 5.234 10.429 1.362 4.21 2.054 9.157 2.054 14.7 0 6.527-.682 12.499-2.023 17.753-1.328 5.178-3.167 9.663-5.474 13.329-2.21 3.512-4.792 6.225-7.678 8.062a16.467 16.467 0 0 1-9.051 2.615zm72.225-128.852c2.728 0 5.066.973 7.015 2.924s2.922 4.287 2.922 7.015c0 2.723-.976 5.062-2.922 7.014s-4.287 2.922-7.015 2.922-5.062-.973-7.014-2.922-2.925-4.291-2.925-7.014c0-2.728.976-5.066 2.925-7.015s4.289-2.924 7.014-2.924m8.767 43.84a212.486 212.486 0 0 0-1.265 18.021l-.291 18.415v20.264a611.5 611.5 0 0 0 .291 18.409c.195 6.432.616 12.248 1.265 17.441a98.91 98.91 0 0 0-17.533 0c.648-5.193 1.07-11.012 1.264-17.441l.291-18.409V96.231c0-5.847-.094-11.985-.291-18.415a212.07 212.07 0 0 0-1.264-18.021c3.632.652 6.554.971 8.766.971s5.129-.319 8.767-.971m-8.767-47.672c-3.767 0-7.04 1.362-9.724 4.046s-4.046 5.957-4.046 9.725 1.359 7.034 4.043 9.722c2.69 2.684 5.96 4.043 9.727 4.043s7.043-1.361 9.725-4.043c2.684-2.69 4.043-5.96 4.043-9.725s-1.359-7.037-4.041-9.722-5.954-4.046-9.727-4.046zm-13.165 42.99l.593 5.124c.633 5.451 1.05 11.405 1.241 17.694l.289 18.3v20.264c0 5.859-.097 12.013-.289 18.291-.191 6.287-.605 12.034-1.236 17.084l-.588 4.71 4.731-.419a95.977 95.977 0 0 1 8.427-.375c2.766 0 5.602.128 8.429.375l4.728.419-.587-4.71c-.631-5.05-1.045-10.797-1.236-17.084l-.289-18.294V96.228c0-5.783.097-11.939.289-18.299.191-6.289.607-12.243 1.241-17.694l.593-5.122-5.076.907c-3.374.603-6.097.909-8.09.909s-4.72-.306-8.089-.909l-5.081-.907zm64.506-49.682c-.264 3.246-.486 7.18-.682 11.788l-.488 14.516-.289 15.391-.1 14.419v35.266l.1 14.422.289 15.39.488 14.419c.194 4.549.418 8.312.682 11.303a98.946 98.946 0 0 0-17.536 0c.26-2.991.483-6.756.679-11.303l.488-14.419.294-15.39.094-14.422V61.545l-.094-14.419-.294-15.391-.488-14.516a317.86 317.86 0 0 0-.679-11.788c3.632.651 6.554.973 8.766.973s5.13-.322 8.77-.973M959.821.784l.396 4.953c.25 3.139.478 7.058.669 11.645l.488 14.453.291 15.342.095 14.368v35.266l-.095 14.373-.293 15.342-.486 14.348c-.191 4.503-.416 8.25-.666 11.137l-.394 4.551 4.547-.403a96.023 96.023 0 0 1 8.429-.376 96.9 96.9 0 0 1 8.432.376l4.552.403-.398-4.554a252.345 252.345 0 0 1-.669-11.132l-.486-14.353-.288-15.339-.1-14.373V61.545l.1-14.368.288-15.344.486-14.453c.196-4.675.416-8.481.671-11.643l.399-4.955-4.892.876c-3.387.605-6.112.912-8.095.912s-4.712-.307-8.089-.912l-4.892-.874zm129.282 4.647c-.388 4.156-.713 10.163-.973 18.021l-.682 26.013-.486 29.225-.196 27.475.196 24.162.389 22.016a74.49 74.49 0 0 0-7.6-.391 73.46 73.46 0 0 0-7.402.391l.585-18.512h-.389c-1.042 2.077-2.434 4.32-4.191 6.723s-3.965 4.644-6.626 6.721-5.812 3.773-9.446 5.068c-3.64 1.297-7.863 1.946-12.665 1.946a43.054 43.054 0 0 1-14.519-2.531c-4.741-1.689-8.961-4.447-12.662-8.282-3.704-3.829-6.695-8.769-8.966-14.805s-3.407-13.28-3.407-21.727c0-8.312 1.231-15.521 3.701-21.628s5.681-11.201 9.643-15.29c3.961-4.098 8.442-7.145 13.446-9.16s10.033-3.02 15.096-3.02c14.422 0 24.423 6.496 30.006 19.482h.391V58.232l-.099-14.905-.389-27.178-.288-10.716 4.48.685a31.76 31.76 0 0 0 4.286.288c1.428 0 2.823-.094 4.189-.288l4.578-.687m-45.006 142.235c5.063 0 9.416-1.265 13.053-3.801s6.652-5.842 9.061-9.937c2.401-4.092 4.156-8.736 5.262-13.929s1.655-10.391 1.655-15.589c0-12.471-2.404-21.983-7.209-28.545-4.807-6.555-11.885-9.84-21.237-9.84-4.674 0-8.736 1.073-12.179 3.214s-6.301 5.134-8.57 8.966c-2.276 3.831-3.967 8.312-5.065 13.441-1.106 5.134-1.653 10.621-1.653 16.463 0 7.798.807 14.222 2.435 19.293 1.622 5.063 3.701 9.124 6.232 12.176s5.423 5.163 8.67 6.333 6.427 1.755 9.545 1.755M1067.554.879l.187 4.707.286 10.627.388 27.165.1 14.854v6.491c-6.46-7.117-15.352-10.708-26.566-10.708-5.53 0-11.091 1.108-16.527 3.295-5.489 2.212-10.46 5.591-14.769 10.051-4.291 4.43-7.806 9.988-10.442 16.522s-3.982 14.289-3.982 23.061c0 8.876 1.228 16.639 3.655 23.079 2.444 6.503 5.739 11.926 9.796 16.118 4.097 4.24 8.851 7.346 14.131 9.226a47.08 47.08 0 0 0 15.804 2.754c5.221 0 9.913-.731 13.951-2.169 3.998-1.428 7.536-3.331 10.517-5.658a41.424 41.424 0 0 0 4.628-4.194l-.332 10.496 4.358-.445a69.33 69.33 0 0 1 7.014-.373 71.22 71.22 0 0 1 7.211.373l4.294.437-.462-26.333-.197-24.093.197-27.424.485-29.196.68-25.965c.258-7.748.579-13.73.958-17.791l.459-4.892-4.856.746-4.534.677a26.02 26.02 0 0 1-3.647.25 28.1 28.1 0 0 1-3.768-.255l-4.368-.667-4.649-.766zm-23.457 142.955c-2.656 0-5.433-.513-8.25-1.527-2.618-.946-4.917-2.639-7.014-5.173-2.21-2.662-4.075-6.33-5.536-10.9-1.494-4.659-2.253-10.753-2.253-18.123 0-5.556.529-10.823 1.569-15.658 1.006-4.693 2.559-8.828 4.615-12.292 1.944-3.28 4.402-5.859 7.301-7.668 2.848-1.77 6.171-2.634 10.153-2.634 8.131 0 14.067 2.708 18.147 8.272 4.294 5.859 6.467 14.702 6.467 26.279 0 4.899-.528 9.878-1.573 14.792-1.012 4.767-2.634 9.068-4.818 12.785-2.11 3.591-4.784 6.531-7.944 8.731-3.006 2.099-6.562 3.116-10.864 3.116zm103.322-85.988c6.884 0 12.826 1.073 17.827 3.214s9.191 5.004 12.57 8.572c3.372 3.574 5.873 7.763 7.5 12.568s2.437 9.936 2.437 15.39a73.62 73.62 0 0 1-.391 7.599l-20.844-.388-20.849-.197c-4.288 0-8.544.066-12.761.197l-12.762.388c-.135.649-.197 1.627-.197 2.92v2.534c0 5.065.746 9.811 2.243 14.222 1.489 4.417 3.668 8.218 6.527 11.398 2.853 3.185 6.363 5.719 10.521 7.599 4.156 1.888 8.963 2.825 14.419 2.825 2.596 0 5.26-.357 7.988-1.073 2.75-.719 5.426-1.696 7.993-2.919s5.017-2.69 7.303-4.386a37.225 37.225 0 0 0 5.941-5.459l.973.585-1.167 9.548c-3.896 3.119-8.741 5.784-14.514 7.988a50.077 50.077 0 0 1-18.026 3.313c-7.015 0-13.413-1.07-19.194-3.213s-10.782-5.265-15.002-9.355a42.013 42.013 0 0 1-9.742-14.513c-2.273-5.587-3.407-11.625-3.407-18.121 0-15.98 3.798-28.512 11.397-37.603s18.67-13.633 33.217-13.633m-1.558 40.525c4.286 0 8.636-.064 13.05-.194l12.861-.391c0-3.509-.293-7.208-.878-11.106a34.68 34.68 0 0 0-3.507-10.91 23.26 23.26 0 0 0-7.306-8.381c-3.116-2.204-7.206-3.31-12.276-3.31-4.805 0-8.864 1.106-12.177 3.31a28.417 28.417 0 0 0-8.184 8.282 39.327 39.327 0 0 0-4.869 10.909c-1.108 3.962-1.788 7.694-2.048 11.204l12.57.391a421.13 421.13 0 0 0 12.764.196m1.558-44.356c-15.671 0-27.835 5.052-36.16 15.014-8.151 9.755-12.289 23.235-12.289 40.06 0 6.964 1.242 13.546 3.689 19.564a46.03 46.03 0 0 0 10.626 15.82c4.585 4.444 10.082 7.875 16.338 10.194 6.179 2.291 13.083 3.454 20.524 3.454a54.154 54.154 0 0 0 19.393-3.566c6.125-2.34 11.354-5.227 15.541-8.575l1.221-.976.189-1.551 1.469-12.018-2.136-1.28-.973-.585-2.759-1.655-2.107 2.432a33.553 33.553 0 0 1-5.336 4.894 40.273 40.273 0 0 1-6.662 4 41.615 41.615 0 0 1-7.308 2.67c-2.401.631-4.761.95-7.022.95-4.889 0-9.206-.835-12.833-2.483-3.661-1.653-6.767-3.895-9.252-6.667-2.501-2.782-4.435-6.169-5.75-10.064-1.354-3.995-2.041-8.368-2.041-12.999v-1.73l9.244-.283c4.212-.128 8.468-.194 12.644-.194l20.778.196 24.376.452.352-3.514c.131-1.288.23-2.585.31-3.967a79.88 79.88 0 0 0 .102-4.016c0-5.844-.889-11.436-2.639-16.616a37.84 37.84 0 0 0-8.342-13.97c-3.73-3.939-8.386-7.124-13.845-9.466-5.467-2.34-11.973-3.525-19.342-3.525zm-22.593 40.073a59.5 59.5 0 0 1 1.44-6.476 35.734 35.734 0 0 1 4.399-9.862 24.76 24.76 0 0 1 7.091-7.175c2.656-1.768 6.038-2.667 10.051-2.667 4.233 0 7.618.876 10.062 2.608a19.305 19.305 0 0 1 6.118 7.017 30.973 30.973 0 0 1 3.121 9.714c.353 2.348.593 4.631.723 6.828l-9.03.271c-8.526.26-17.058.26-25.584 0l-8.391-.258zm125.92-36.242c3.648 0 7.326.519 11.037 1.556a26.41 26.41 0 0 1 10.065 5.359c2.998 2.534 5.443 5.977 7.328 10.327 1.89 4.35 2.838 9.904 2.838 16.657 0 5.584-.133 11.331-.388 17.242a419.537 419.537 0 0 0-.391 18.803v12.662c0 2.079.031 4.125.097 6.141s.163 3.928.294 5.747a82.67 82.67 0 0 0-8.282-.391c-2.766 0-5.461.128-8.087.391l.879-20.849a493.62 493.62 0 0 0 .483-22.016V97.59c0-9.74-1.88-17.115-5.648-22.113s-8.963-7.503-15.587-7.503c-9.098 0-15.752 2.792-19.972 8.376s-6.333 13.444-6.333 23.574v16.563a611.77 611.77 0 0 0 .294 18.409c.194 6.432.613 12.248 1.267 17.442a98.97 98.97 0 0 0-17.538 0c.649-5.194 1.07-11.012 1.267-17.442l.291-18.409V96.223c0-5.847-.097-11.985-.291-18.414a213.26 213.26 0 0 0-1.267-18.021c3.635.651 6.557.97 8.769.97 1.037 0 2.174-.094 3.41-.288l4.383-.682a207.84 207.84 0 0 0-.585 15.586h.389c3.652-5.586 8.018-9.903 13.096-12.955 5.083-3.045 11.142-4.573 18.182-4.573m0-3.831c-7.709 0-14.488 1.724-20.154 5.124a41.393 41.393 0 0 0-7.408 5.709l.304-4.764.363-4.807-4.764.733-4.409.684a18.3 18.3 0 0 1-2.804.243c-1.998 0-4.721-.307-8.093-.909l-5.075-.91.592 5.122a209.796 209.796 0 0 1 1.244 17.696l.289 18.297v20.264c0 5.781-.097 11.934-.289 18.295-.194 6.294-.61 12.041-1.238 17.083l-.588 4.71 4.728-.418a95.705 95.705 0 0 1 8.432-.376c2.766 0 5.602.128 8.432.376l4.733.418-.592-4.715c-.631-5.014-1.048-10.759-1.239-17.078a606.513 606.513 0 0 1-.291-18.295V99.935c0-9.229 1.869-16.384 5.558-21.266 3.487-4.613 9.019-6.855 16.918-6.855 5.397 0 9.494 1.954 12.526 5.977 3.234 4.294 4.874 10.958 4.874 19.806v11.886a490.92 490.92 0 0 1-.48 21.845l-.882 20.872-.168 4.401 4.383-.442a77.125 77.125 0 0 1 7.704-.373c2.779 0 5.438.125 7.901.373l4.526.455-.324-4.54a139.36 139.36 0 0 1-.286-5.596 180.26 180.26 0 0 1-.095-6.018v-12.662c0-6.608.13-12.877.386-18.632.263-6.003.393-11.86.393-17.413 0-7.249-1.062-13.367-3.154-18.185-2.113-4.871-4.93-8.817-8.369-11.727a30.384 30.384 0 0 0-11.504-6.12 44.706 44.706 0 0 0-12.08-1.706z" fill="#89ba17" fill-rule="nonzero"/><path d="M1334.8 132.138l3.238-1.869c.115.198-4.727 17.6-4.692 17.657l12.336-7.123c.067.118 5.405 15.161 5.405 15.161.028.054 11.665-6.734 11.665-6.734l15.455 6.22c.013.019 23.446-13.535 23.446-13.535m-29.611-117.578l12.046-6.955 4.621 10.707 10.943-6.319c.042.067-1.678 18.581-1.614 18.696.026.045 4.177-2.409 4.177-2.409m-59.748-6.526l22.873-13.206-29.917 29.08c.048.083 16.827-10.144 17.012-9.821l-16.372 26.695c.143.253 14.746-8.776 14.861-8.581.175.304-9.502 19.269-9.502 19.269.106.182 15.925-9.195 15.925-9.195.106.185-6.171 18.156-6.12 18.242l17.971-10.377c.01.013-4.299 17.194-4.299 17.194l19.007-10.975-7.377 16.05c.029.051 18.422-10.885 18.53-10.697l-5.695 18.738 16.434-9.489c.038.064-10.585 17.568-10.547 17.636l15.286-8.828c.029.052-14.861 25.91-14.861 25.91l15.718-9.073m59.613-54.12l10.953-6.325 7.319 9.15 9.686-5.593c.036.061 2.155 16.111 2.209 16.21.022.035 3.349-1.931 3.349-1.931m-66.498-2.448l24.098-13.911-33.947 31.406c.06.102 21.32-12.851 21.556-12.445 0 0-23.723 30.23-23.416 30.761.172.294 17.245-10.259 17.376-10.032.227.393-15.737 22.87-15.737 22.87.102.179 15.73-9.083 15.73-9.083.128.221-10.661 20.722-10.597 20.828l13.157-7.597c.01.016-5.087 17.651-5.087 17.651l11.185-6.459-1.46 12.637c.016.026 10.313-6.095 10.374-5.989l8.431 10.578 13.841-7.993m78.24-78.393l17.12-9.885-.144 13.462 13.522-7.808c.048.08-5.839 20.959-5.762 21.09.086.153 14.535-8.393 14.535-8.393l-12.982 22.736 15.267-8.817c.186.316-15.34 21.243-15.315 21.285s15.152-8.751 15.152-8.751c.055.09-15.404 20.013-15.404 20.013l15.161-8.754c.218.381-15.679 21.701-15.541 21.937.111.198 15.267-8.814 15.267-8.814l-14.341 25.433c.074.131 14.309-8.434 14.382-8.303M1524.05 9.003l3.634-2.097-3.055 13.57c.048.08 16.261-9.799 16.44-9.492l-15.935 26.446c.147.256 15.097-8.983 15.212-8.782.218.38-14.982 22.435-14.982 22.435.096.167 14.656-8.462 14.656-8.462.151.258-14.647 22.997-14.576 23.122l14.41-8.319c.013.022-14.41 23.033-14.41 23.033l30.952-17.868s-31.323 29.022-30.952 29.664c.028.051 18.731-11.07 18.843-10.879l-18.907 26.364 14.621-8.444c.048.077-14.829 19.997-14.778 20.08l14.654-8.46c.031.051-15.111 26.05-15.111 26.05l15.421-8.904c.242.426-16.36 23.999-16.159 24.35l16.651-9.613m149.687-2.017c.106.186 14.184-8.188 14.184-8.188l-6.191 21.659 6.763-3.905m-15.44-86.402c.042.067 3.574-2.065 3.574-2.065l-3.219 18.374c.087.15 15.162-8.888 15.222-8.789.16.271-15.222 20.204-15.222 20.204l14.788-8.536c.076.138-15.079 26.373-14.868 26.74.131.227 14.443-8.593 14.555-8.402.287.502-15.708 24.357-15.708 24.357.086.15 15.471-9.297 15.631-9.023m-77.747-52.784l3.688-2.131c.105.188-3.471 16.881-3.439 16.932l15.232-8.792c.127.227-15.239 27.079-15.239 27.079.039.067 14.344-8.284 14.344-8.284l-14.733 25.206c.009.013 14.448-8.341 14.448-8.341.246.425-13.908 25.58-13.908 25.58.054.09 14.039-8.105 14.039-8.105.08.141-9.677 20.489-9.677 20.489l13.03-7.523c.035.064-3.65 16.181-3.621 16.226 0 0 12.752-7.689 12.892-7.443l.496 11.189 17.098-9.873m4.95-120.614l11.023-6.363-7.319 17.6 15.395-8.891m-57.894-2.346l11.023-6.363-8.569 16.753c.045.077 16.191-9.76 16.37-9.454m74.436-17.548l3.634-2.097-3.055 13.573c.048.077 16.264-9.802 16.443-9.492l-15.938 26.447c.147.255 15.107-8.991 15.222-8.789.221.38-14.995 22.442-14.995 22.442.096.166 14.672-8.47 14.672-8.47.15.259-14.663 23.008-14.589 23.129l14.42-8.325c.016.025-14.42 23.039-14.42 23.039l14.385-8.306s-14.599 19.729-14.385 20.099c.022.039 14.298-8.45 14.381-8.306l-14.445 23.784 14.449-8.341c.044.076-14.65 19.898-14.603 19.978l14.686-8.476c.029.051-15.143 26.069-15.143 26.069l15.437-8.913c.246.425-16.373 24.004-16.172 24.356l16.658-9.62m62.908-77.252l9.479-5.471c.077.137 7.204 10.732 7.226 10.773l8.61-4.973c.077.135-.844 18.767-.844 18.767.036.054 12.183-7.031 12.183-7.031l-10.636 19.405c.007.013 14.657-8.462 14.657-8.462m-61.832 18.271l11.448-6.609 12.605 6.094 10.687-6.168c.045.074 19.326 6.44 19.396 6.564.058.096 8.952-5.167 8.952-5.167m-74.444-27.671l23.544-13.592-31.867 30.202c.061.102 21.122-12.73 21.356-12.327 0 0-24.2 30.499-23.89 31.036.173.297 17.546-10.445 17.68-10.208.233.399-16.418 23.263-16.418 23.263.103.179 15.619-9.016 15.619-9.016.131.224-10.981 20.905-10.917 21.013l13.068-7.545c.009.016-5.2 17.715-5.2 17.715l11.371-6.565-2.02 12.96c.016.025 10.441-6.171 10.502-6.063l7.3 11.231 12.218-7.054m84.414-74.829l11.086-6.398m-23.666 2.182l18.182-10.498m-40.879 4.627l3.621-2.09-3.215 13.663c.041.07 14.714-8.869 14.874-8.591.003 0-14.868 25.286-14.635 25.696.205.357 21.02-12.513 21.183-12.231.275.473-21.147 25.992-21.147 25.992.096.166 14.599-8.431 14.599-8.431.15.262-14.692 23.027-14.619 23.148l14.401-8.315c.016.022-14.474 23.071-14.474 23.071l14.481-8.36s-14.989 19.949-14.772 20.322c.022.039 14.733-8.708 14.823-8.558l-3.583 15.072 4.113-2.375" fill="none" stroke="#003056" stroke-width="9.59"/><path d="M1377.44 16.97c6.301 0 11.75.754 16.342 2.259 4.593 1.514 8.861 3.842 12.8 6.995a42.42 42.42 0 0 0-2.953 7.092 98.39 98.39 0 0 0-2.362 9.453h-2.365c-.657-1.838-1.541-3.843-2.657-6.005a22.938 22.938 0 0 0-4.528-6.004 25.314 25.314 0 0 0-6.795-4.634c-2.629-1.249-5.778-1.87-9.453-1.87-3.668 0-7.06.592-10.139 1.777a24.22 24.22 0 0 0-8.074 5.019 22.174 22.174 0 0 0-5.314 7.777 25.42 25.42 0 0 0-1.871 9.847c0 6.17 1.542 11.027 4.625 14.573s6.926 6.532 11.522 8.962a113.623 113.623 0 0 0 14.861 6.491c5.315 1.907 10.273 4.236 14.866 6.994a37.98 37.98 0 0 1 11.522 10.638c3.083 4.325 4.625 10.11 4.625 17.328 0 6.041-1.083 11.749-3.25 17.129a40.284 40.284 0 0 1-9.453 14.078c-4.138 4.008-9.189 7.092-15.165 9.258s-12.768 3.246-20.379 3.246c-8.143 0-14.739-1.079-19.786-3.246-5.056-2.166-9.291-4.629-12.703-7.384a47.12 47.12 0 0 0 2.463-8.179c.458-2.43.884-5.546 1.278-9.355h2.361a39.516 39.516 0 0 0 4.231 7.189c1.773 2.434 3.936 4.625 6.5 6.597a33.3 33.3 0 0 0 8.962 4.823c3.408 1.254 7.221 1.871 11.416 1.871 4.333 0 8.24-.755 11.721-2.264a26.63 26.63 0 0 0 8.857-6.106 26.74 26.74 0 0 0 5.615-9.055c1.31-3.477 1.968-7.185 1.968-11.129 0-6.037-1.542-10.824-4.625-14.37-3.092-3.546-6.93-6.495-11.523-8.861a135.62 135.62 0 0 0-14.865-6.499 76.395 76.395 0 0 1-14.869-7.384 39.347 39.347 0 0 1-11.518-11.323c-3.083-4.597-4.625-10.764-4.625-18.513 0-5.513.986-10.532 2.954-15.064a32.817 32.817 0 0 1 8.568-11.717c3.741-3.278 8.236-5.838 13.486-7.676s11.161-2.758 17.729-2.758m0-4.796c-7.071 0-13.567 1.014-19.307 3.023-5.81 2.04-10.877 4.929-15.064 8.601a37.727 37.727 0 0 0-9.802 13.404c-2.224 5.116-3.347 10.829-3.347 16.975 0 8.682 1.829 15.806 5.436 21.186a44.22 44.22 0 0 0 12.914 12.683c4.856 3.123 10.171 5.761 15.794 7.846 5.104 1.891 9.928 4 14.346 6.268 4.025 2.073 7.42 4.682 10.09 7.749 2.32 2.666 3.448 6.337 3.448 11.222 0 3.335-.56 6.512-1.663 9.433a21.86 21.86 0 0 1-4.601 7.453 22.05 22.05 0 0 1-7.29 5.002c-2.861 1.241-6.159 1.87-9.81 1.87-3.623 0-6.914-.527-9.77-1.582a28.575 28.575 0 0 1-7.688-4.118 27.88 27.88 0 0 1-5.546-5.623 34.708 34.708 0 0 1-3.724-6.309l-1.266-2.852h-9.806l-.446 4.301c-.378 3.651-.783 6.661-1.218 8.962-.405 2.142-1.156 4.609-2.215 7.315l-1.278 3.27 2.735 2.207c3.736 3.018 8.386 5.732 13.822 8.061 5.623 2.41 12.918 3.631 21.677 3.631 8.143 0 15.547-1.189 22.018-3.529 6.589-2.394 12.265-5.863 16.865-10.322a45.257 45.257 0 0 0 10.561-15.733c2.385-5.915 3.594-12.281 3.594-18.914 0-8.208-1.854-14.975-5.517-20.111a42.893 42.893 0 0 0-12.959-11.968 88.797 88.797 0 0 0-15.717-7.388 109.93 109.93 0 0 1-14.24-6.22c-4.053-2.138-7.465-4.787-10.147-7.871-2.284-2.629-3.448-6.471-3.448-11.424 0-2.946.491-5.567 1.501-8.013a17.274 17.274 0 0 1 4.179-6.126 19.29 19.29 0 0 1 6.499-4.025c2.524-.974 5.355-1.461 8.431-1.461 2.937 0 5.428.471 7.396 1.404 2.146 1.023 4 2.28 5.517 3.749s2.731 3.067 3.595 4.747c1.014 1.967 1.826 3.797 2.414 5.436l1.136 3.173h9.644l.787-3.826c.746-3.607 1.501-6.625 2.239-8.974a38.032 38.032 0 0 1 2.621-6.289l1.854-3.509-3.095-2.475a45.65 45.65 0 0 0-14.302-7.802c-5.071-1.663-11.075-2.507-17.847-2.507zm98.855 47.131c7.222 0 13.685.885 19.393 2.658s9.814 3.773 12.309 6.004a57.622 57.622 0 0 0-2.463 6.203 67.773 67.773 0 0 0-1.87 6.796h-1.574a27.94 27.94 0 0 0-3.741-5.222 32.555 32.555 0 0 0-12.804-8.665 24.404 24.404 0 0 0-8.662-1.473c-5.907 0-10.994 1.083-15.262 3.246-4.166 2.08-7.752 5.159-10.439 8.962s-4.658 8.308-5.903 13.489c-1.258 5.189-1.875 10.804-1.875 16.837 0 13.527 2.889 23.734 8.666 30.623s14.241 10.338 25.402 10.338c2.62 0 5.318-.366 8.073-1.084a45.96 45.96 0 0 0 8.074-2.953 44.37 44.37 0 0 0 7.384-4.431 37.3 37.3 0 0 0 6.004-5.517l.986.592a58.588 58.588 0 0 0-1.181 9.652c-3.935 3.148-8.828 5.842-14.67 8.069a50.625 50.625 0 0 1-18.216 3.352c-5.644 0-11.32-.824-17.032-2.463a41.554 41.554 0 0 1-15.457-8.277c-4.597-3.866-8.305-8.889-11.125-15.059s-4.231-13.717-4.231-22.647c0-8.536 1.44-15.883 4.328-22.054s6.662-11.251 11.324-15.259a45.17 45.17 0 0 1 16.046-8.861 61.313 61.313 0 0 1 18.516-2.856m0-4.795a66.668 66.668 0 0 0-19.949 3.071 50.175 50.175 0 0 0-17.737 9.802c-5.157 4.438-9.38 10.114-12.537 16.865-3.176 6.784-4.787 14.886-4.787 24.087 0 9.583 1.574 17.875 4.666 24.639 3.112 6.795 7.278 12.426 12.402 16.735a46.47 46.47 0 0 0 17.223 9.214c6.118 1.756 12.292 2.645 18.354 2.645a55.605 55.605 0 0 0 19.928-3.664c6.272-2.393 11.644-5.355 15.953-8.803l1.704-1.372.081-2.187a53.723 53.723 0 0 1 1.087-8.86l.694-3.327-2.913-1.757-.982-.596-3.457-2.081-2.637 3.046c-1.485 1.713-3.245 3.327-5.246 4.812a39.65 39.65 0 0 1-6.584 3.948 41.59 41.59 0 0 1-7.238 2.649 27.23 27.23 0 0 1-6.857.921c-9.761 0-16.865-2.82-21.729-8.621-5.003-5.976-7.546-15.243-7.546-27.544 0-5.643.588-10.93 1.74-15.713 1.1-4.572 2.836-8.556 5.161-11.847a23.265 23.265 0 0 1 8.694-7.448c3.562-1.814 7.972-2.731 13.092-2.731 2.56 0 4.909.394 6.978 1.169a27.843 27.843 0 0 1 10.91 7.367c1.314 1.481 2.353 2.934 3.099 4.301l1.356 2.523h8.292l.832-3.765a61.99 61.99 0 0 1 1.736-6.312 52.153 52.153 0 0 1 2.256-5.68l1.509-3.23-2.653-2.377c-3.043-2.727-7.656-5.015-14.082-7.011-6.147-1.903-13.153-2.868-20.813-2.868zm65.197-48.178c-.263 3.286-.495 7.222-.689 11.814l-.495 14.472-.292 15.258-.094 14.18v14.971h.394c3.684-5.648 8.102-10.013 13.234-13.101s11.258-4.625 18.379-4.625c3.679 0 7.4.528 11.156 1.574 3.753 1.055 7.141 2.856 10.172 5.416s5.497 6.041 7.408 10.439 2.86 10.013 2.86 16.837a390.88 390.88 0 0 1-.393 17.425 429.904 429.904 0 0 0-.398 19v12.804l.093 6.199c.069 2.037.163 3.976.3 5.81a86.473 86.473 0 0 0-16.548 0l.888-21.073c.329-7.221.495-14.634.495-22.249V99.466c0-9.846-1.907-17.291-5.712-22.346-3.814-5.051-9.056-7.587-15.758-7.587-9.189 0-15.916 2.832-20.18 8.471-4.268 5.648-6.402 13.591-6.402 23.828l.385 27.47.495 14.277c.195 4.597.422 8.337.69 11.226a104 104 0 0 0-8.861-.398 99.99 99.99 0 0 0-8.856.398c.255-3.015.487-6.824.69-11.425l.486-14.569.394-30.128V63.038l-.097-14.569-.297-15.555-.486-14.675a343.285 343.285 0 0 0-.69-11.911c3.672.653 6.625.982 8.856.982 2.232.008 5.189-.317 8.865-.974m5.278-5.814l-6.122 1.096c-3.379.6-6.077.904-8.016.904s-4.642-.304-8.017-.908l-6.114-1.088.487 6.187c.259 3.242.486 7.189.681 11.741l.487 14.59.39 30.002v35.641l-.098 14.512-.292 15.498-.487 14.488a285.676 285.676 0 0 1-.673 11.214l-.487 5.68 5.68-.495a97.506 97.506 0 0 1 8.443-.377 97.11 97.11 0 0 1 8.446.377l5.717.495-.528-5.708a241.625 241.625 0 0 1-.673-10.991l-.491-14.2-.385-27.344c0-9.121 1.825-16.164 5.428-20.935 3.343-4.418 8.694-6.568 16.362-6.568 5.218 0 9.007 1.801 11.928 5.68 3.144 4.178 4.743 10.726 4.743 19.457v12.017c0 7.437-.167 14.849-.487 22.03l-.893 21.105-.211 5.494 5.477-.54a79.047 79.047 0 0 1 7.701-.373c2.746 0 5.404.121 7.899.373l5.676.56-.426-5.688a126.47 126.47 0 0 1-.284-5.603 182.08 182.08 0 0 1-.094-6.049v-12.804c0-6.682.13-13.003.394-18.785.26-6.02.398-11.956.398-17.648 0-7.441-1.096-13.745-3.262-18.735-2.203-5.072-5.133-9.169-8.715-12.196a31.686 31.686 0 0 0-11.968-6.37 46.307 46.307 0 0 0-12.456-1.752c-7.96 0-14.97 1.785-20.837 5.306a42.702 42.702 0 0 0-6.369 4.702v-2.462l.097-14.115.284-15.202.495-14.386.678-11.636.499-6.191h-.005zm138.858 18.415c2.755 0 5.116.982 7.084 2.954a9.656 9.656 0 0 1 2.961 7.088c0 2.758-.99 5.124-2.961 7.091a9.663 9.663 0 0 1-7.084 2.954c-2.759 0-5.124-.986-7.092-2.954a9.67 9.67 0 0 1-2.953-7.091c0-2.755.982-5.121 2.953-7.088a9.656 9.656 0 0 1 7.092-2.954m-38.798 0c2.759 0 5.12.982 7.092 2.954 1.968 1.967 2.954 4.329 2.954 7.088s-.986 5.124-2.954 7.091a9.684 9.684 0 0 1-7.092 2.954c-2.759 0-5.12-.986-7.088-2.954a9.677 9.677 0 0 1-2.957-7.091c0-2.755.99-5.121 2.957-7.088a9.65 9.65 0 0 1 7.088-2.954m59.079 42.336c-.661 10.24-1.054 20.123-1.18 29.633l-.203 30.225.203 17.332.588 16.342a78.397 78.397 0 0 0-7.676-.394c-2.499 0-5.059.13-7.68.394a62.1 62.1 0 0 0 .292-3.741c.073-1.31.098-2.69.098-4.134v-8.467h-.394c-3.412 6.301-7.814 10.934-13.198 13.883a35.83 35.83 0 0 1-17.526 4.435c-10.236 0-18.281-2.727-24.12-8.179-5.842-5.441-8.763-13.287-8.763-23.523 0-6.962.097-12.902.292-17.823.203-4.925.296-9.81.296-14.675l-.093-14.962-.292-16.346c3.274.661 6.037.986 8.268.986 2.098 0 4.788-.325 8.074-.986a539.64 539.64 0 0 0-1.477 25.896 814.65 814.65 0 0 0-.487 28.846c0 6.832.584 12.05 1.769 15.656s2.621 6.333 4.329 8.171c1.838 2.102 4.167 3.842 6.994 5.222 2.816 1.379 6.135 2.069 9.944 2.069 5.514 0 10.102-1.217 13.782-3.652 3.668-2.426 6.366-5.408 8.07-8.958.917-2.231 1.643-4.134 2.166-5.708.528-1.582.954-3.672 1.278-6.305.325-2.624.528-6.17.597-10.629l.093-18.314V77.022l-.093-8.268-.293-7.481 4.131.69a28.29 28.29 0 0 0 4.138.288c1.444 0 2.819-.094 4.134-.288a85.887 85.887 0 0 0 3.935-.69m-20.285-47.131a14.525 14.525 0 0 0-10.479 4.361 14.533 14.533 0 0 0-4.354 10.471c0 4.005 1.51 7.632 4.358 10.48a14.535 14.535 0 0 0 10.479 4.357c4.004 0 7.627-1.509 10.475-4.357a14.52 14.52 0 0 0 4.358-10.48c0-4.004-1.51-7.627-4.366-10.479a14.5 14.5 0 0 0-10.467-4.353h-.004zm-38.794 0a14.53 14.53 0 0 0-10.479 4.361 14.53 14.53 0 0 0-4.358 10.471c0 4.005 1.51 7.628 4.362 10.48a14.53 14.53 0 0 0 10.475 4.357c4 0 7.627-1.501 10.476-4.353a14.55 14.55 0 0 0 4.361-10.484c0-3.996-1.505-7.619-4.353-10.471a14.534 14.534 0 0 0-10.484-4.361zm1.371 41.179l-6.247 1.254c-2.946.588-5.348.888-7.133.888-1.923 0-4.39-.3-7.323-.892l-5.874-1.177.133 5.988.293 16.298.093 14.901c0 4.824-.098 9.697-.292 14.48-.203 5.019-.296 11.076-.296 18.014 0 11.582 3.46 20.678 10.292 27.036 6.723 6.28 15.933 9.461 27.386 9.461 7.091 0 13.765-1.692 19.835-5.023a34.44 34.44 0 0 0 6.321-4.471l-.203 2.212-.633 5.874 5.883-.588c2.446-.244 4.868-.373 7.197-.373s4.747.121 7.201.373l5.542.552-.276-5.563-.584-16.216-.203-17.222.203-30.164c.122-9.393.519-19.28 1.173-29.394l.405-6.248-6.142 1.246a79.932 79.932 0 0 1-3.708.649 24.104 24.104 0 0 1-6.849 0l-3.963-.662-5.976-1.099.324 6.065a284.07 284.07 0 0 1 .381 15.498v16.545l-.097 18.245c-.069 4.248-.251 7.652-.556 10.11-.284 2.288-.645 4.098-1.075 5.38-.466 1.408-1.136 3.176-1.992 5.266-1.335 2.718-3.408 4.982-6.333 6.913-2.864 1.895-6.609 2.852-11.141 2.852-3.059 0-5.692-.535-7.838-1.582a17.297 17.297 0 0 1-5.489-4.069c-.937-1.01-2.191-2.852-3.388-6.508-1.014-3.103-1.529-7.871-1.529-14.163 0-9.774.162-19.421.486-28.684.325-9.311.82-17.94 1.461-25.661l.527-6.341h.004zm100.007-48.989c-.259 3.286-.486 7.254-.689 11.916l-.491 14.67-.292 15.555-.098 14.573v35.641l.39 30.128.491 14.573c.151 3.811.381 7.619.689 11.421a104.384 104.384 0 0 0-8.86-.394 101.76 101.76 0 0 0-8.861.394c.26-3.015.495-6.824.69-11.421l.491-14.573.385-30.128V63.046l-.089-14.573-.296-15.555-.487-14.67a324.68 324.68 0 0 0-.69-11.916c3.672.657 6.621.986 8.857.986s5.185-.325 8.86-.986m5.275-5.806l-6.118 1.088c-3.384.604-6.082.908-8.021.908s-4.637-.304-8.017-.908l-6.118-1.088.495 6.191c.255 3.238.487 7.185.677 11.733l.487 14.594.386 30.002v35.641l-.094 14.512-.292 15.494-.487 14.484a270.986 270.986 0 0 1-.673 11.214l-.495 5.684 5.684-.495a98.416 98.416 0 0 1 8.447-.373 96.98 96.98 0 0 1 8.447.373l5.688.495-.499-5.684a274.31 274.31 0 0 1-.67-11.21l-.487-14.484-.292-15.498-.097-14.512V63.046l.385-30.002.491-14.594c.199-4.6.422-8.552.674-11.733l.499-6.191zm58.251 58.779c6.958 0 12.963 1.083 18.022 3.25 5.051 2.166 9.282 5.055 12.698 8.666a34.19 34.19 0 0 1 7.583 12.703 48.24 48.24 0 0 1 2.463 15.55c0 1.319-.041 2.597-.094 3.846-.069 1.246-.17 2.524-.292 3.838l-21.072-.397-21.069-.199a423.86 423.86 0 0 0-12.901.203l-12.898.393c-.125.654-.198 1.644-.198 2.954v2.556c0 5.124.75 9.92 2.264 14.378s3.704 8.305 6.596 11.522c2.881 3.214 6.427 5.774 10.63 7.676 4.199 1.907 9.063 2.857 14.577 2.857 2.625 0 5.315-.366 8.074-1.084a46.333 46.333 0 0 0 8.073-2.953 44.023 44.023 0 0 0 7.384-4.431 37.174 37.174 0 0 0 6.005-5.517l.985.592-1.18 9.652c-3.936 3.148-8.832 5.842-14.675 8.069a50.6 50.6 0 0 1-18.212 3.352c-7.092 0-13.559-1.088-19.393-3.254-5.842-2.167-10.897-5.315-15.165-9.449a42.46 42.46 0 0 1-9.843-14.675c-2.3-5.639-3.448-11.745-3.448-18.309 0-16.147 3.838-28.814 11.518-38.007s18.865-13.782 33.572-13.782m-1.574 40.96a457.47 457.47 0 0 0 13.194-.202l12.995-.394c0-3.546-.293-7.282-.885-11.226a35.194 35.194 0 0 0-3.542-11.027 23.5 23.5 0 0 0-7.388-8.463c-3.152-2.231-7.282-3.351-12.41-3.351-4.857 0-8.958 1.115-12.305 3.351a28.7 28.7 0 0 0-8.269 8.366 39.884 39.884 0 0 0-4.925 11.027 58.18 58.18 0 0 0-2.069 11.319l12.707.398 12.897.202m1.574-45.755c-16.119 0-28.655 5.217-37.252 15.506-8.386 10.037-12.638 23.856-12.638 41.078 0 7.169 1.282 13.936 3.806 20.123a47.327 47.327 0 0 0 10.946 16.309c4.726 4.581 10.386 8.115 16.837 10.504 6.341 2.353 13.429 3.546 21.056 3.546a55.502 55.502 0 0 0 19.928-3.668c6.277-2.393 11.648-5.355 15.957-8.803l1.525-1.218.24-1.939 1.562-12.739-2.666-1.607-.99-.592-3.456-2.077-2.637 3.047c-1.473 1.704-3.238 3.318-5.242 4.807a39.163 39.163 0 0 1-6.581 3.948 41.59 41.59 0 0 1-7.238 2.649 27.18 27.18 0 0 1-6.856.925c-4.812 0-9.047-.815-12.593-2.426a26.93 26.93 0 0 1-9.043-6.516c-2.439-2.71-4.329-6.024-5.628-9.858a39.986 39.986 0 0 1-2.008-12.833v-.86l8.447-.252a416.83 416.83 0 0 1 12.751-.198l20.975.198 25.519.479.422-4.422a80.15 80.15 0 0 0 .406-8.139c0-6.004-.913-11.757-2.718-17.088a39.11 39.11 0 0 0-8.634-14.459c-3.854-4.074-8.666-7.364-14.301-9.778-5.627-2.418-12.325-3.639-19.9-3.639l.004-.008zm-21.746 40.538a59.89 59.89 0 0 1 1.258-5.412 35.34 35.34 0 0 1 4.325-9.709 24.09 24.09 0 0 1 6.909-6.978c2.564-1.716 5.716-2.548 9.644-2.548 4.085 0 7.331.832 9.639 2.463a18.63 18.63 0 0 1 5.903 6.767c1.518 2.921 2.548 6.134 3.059 9.534.301 1.996.52 3.96.658 5.867l-8.167.243-13.056.203c-4.065 0-8.357-.073-12.751-.203l-7.425-.227zm120.638-35.743c1.18 0 2.199.069 3.051.203.851.126 1.931.463 3.249.982-.661 1.578-1.055 3.976-1.184 7.193s-.199 6.134-.199 8.759l-1.38.982c-.657-.783-1.935-1.505-3.838-2.166a17.707 17.707 0 0 0-5.805-.982c-3.153 0-5.98.722-8.467 2.166a19.75 19.75 0 0 0-6.305 5.806c-1.704 2.434-3.019 5.315-3.94 8.666a40.53 40.53 0 0 0-1.375 10.731v21.657l.093 20.184c.069 4.665.297 8.438.69 11.323a81.88 81.88 0 0 0-16.147 0c.393-4.463.621-10.532.69-18.216l.093-34.559-.093-17.725c-.069-6.694-.297-14.37-.69-23.036 1.44.264 2.824.487 4.138.69 1.307.198 2.686.292 4.134.292 1.177 0 2.426-.098 3.737-.292l4.138-.69c-.527 4.726-.823 8.467-.884 11.226l-.094 7.879.394.198c7.745-14.179 16.407-21.267 25.994-21.267m0-4.795c-7.575 0-14.59 3.517-20.976 10.479l.337-3.181.722-6.41-6.345 1.161-3.996.665a21.333 21.333 0 0 1-6.451 0l-3.968-.661-5.927-1.092.272 6.025.681 22.87.094 17.672v6.301l-.094 28.221c-.069 7.546-.292 13.547-.669 17.835l-.507 5.765 5.761-.572a77.45 77.45 0 0 1 15.194 0l6.045.601-.82-6.021c-.365-2.678-.584-6.297-.649-10.747l-.089-20.111v-21.657c0-3.367.405-6.556 1.201-9.469.77-2.791 1.858-5.205 3.245-7.181 1.311-1.866 2.873-3.311 4.775-4.41 1.769-1.027 3.753-1.522 6.07-1.522 1.444 0 2.836.24 4.244.723 1.176.405 1.663.709 1.801.807l2.759 3.31 3.619-2.58 1.379-.986 2.012-1.432v-2.475c0-2.543.073-5.424.203-8.56.134-3.461.568-4.95.812-5.53l1.89-4.511-4.544-1.802a20.485 20.485 0 0 0-4.288-1.266 25.15 25.15 0 0 0-3.789-.251l-.004-.008z" fill="#003056" /></svg>